<?xml version="1.0" standalone="no"?>
<!DOCTYPE svg PUBLIC "-//W3C//DTD SVG 1.1//EN" "http://www.w3.org/Graphics/SVG/1.1/DTD/svg11.dtd" >
<svg xmlns="http://www.w3.org/2000/svg">
<metadata>
Created by FontPrep 20130207 at Sun Mar 29 18:02:30 2015
 By David Vale
4.1 (c)1986-92 by Richard A. Ware. All Rights Reserved.
</metadata>
<defs>
<font id="71b5cbc32aabf827a9da9597e647c22b" horiz-adv-x='1024' >
  <font-face 
    font-family="BodoniFLF-BoldItalic"
    font-weight="700"
    font-style="italic"
    font-stretch="normal"
    units-per-em="2048"
    panose-1="2 0 8 3 9 0 0 9 0 3"
    ascent="1638"
    descent="-410"
    x-height="895"
    cap-height="1376"
    bbox="-431.231 -553 2769 1765"
    underline-thickness="51"
    underline-position="-315"
    slope="-12"
    unicode-range="U+0005-E011"
  />
<missing-glyph horiz-adv-x="1024" 
 />
    <glyph glyph-name=".notdef" horiz-adv-x="1024" 
 />
    <glyph glyph-name=".null" horiz-adv-x="0" 
 />
    <glyph glyph-name="nonmarkingreturn" unicode="&#xe002;" horiz-adv-x="0" 
 />
    <glyph glyph-name="breve" horiz-adv-x="847" 
d="M444 1090q-145 0 -212 101q-1 3 -1 11q-1 8 9 18t18 9q8 0 26 -23t64 -38t102 -15q58 0 118 17t86 39t36 22t18 -7t7 -19q0 -12 -19 -27q-48 -40 -116 -64t-136 -24z" />
    <glyph glyph-name="dotaccent" horiz-adv-x="847" 
d="M657 1209q0 -82 -48.5 -132.5t-129.5 -50.5q-82 0 -121 45t-39 89q0 81 48.5 132t130.5 51t120.5 -45t38.5 -89z" />
    <glyph glyph-name="ring" horiz-adv-x="641" 
d="M256 1186q0 -47 34 -81t81 -34t81 34t33 81q0 47 -33 81q-34 33 -81 33t-81 -34t-34 -80zM524 1186q0 -62 -45 -108t-108 -46t-109 45q-45 45 -45 109t45 108q44 45 108 45t109 -45t45 -108z" />
    <glyph glyph-name="hungarumlaut" unicode="&#xa;" horiz-adv-x="991" 
d="M592 1430h174l-205 -396l-43 25zM340 1430h174l-205 -396l-45 25z" />
    <glyph glyph-name="ogonek" horiz-adv-x="638" 
d="M178 -209q0 94 141 209h37q-35 -43 -62.5 -85.5t-27.5 -114.5t70 -72q29 0 47 7q19 7 29 7t10 -8t-37 -30t-93 -21q-114 0 -114 108z" />
    <glyph glyph-name="caron" horiz-adv-x="825" 
d="M193 1346l18 16l221 -154l283 158l20 -20l-274 -273h-88z" />
    <glyph glyph-name="dotlessi" unicode="&#xd;" horiz-adv-x="686" 
d="M473 80q29 0 73 46t95 148q8 18 22.5 19t14.5 -15t-6 -28q-57 -125 -137 -200t-216 -75q-80 0 -127 41t-47 121q0 37 13 86l174 637l-117 -14l10 35l437 65l-203 -747q-15 -52 -15 -86q0 -33 29 -33z" />
    <glyph glyph-name="fraction" horiz-adv-x="1882" 
d="M344 -8h-98l1509 1407h96z" />
    <glyph glyph-name="fi" horiz-adv-x="1206" 
d="M666 159q0 46 12 93l166 608l-121 -20h-143l-218 -779q-47 -182 -197 -332q-178 -178 -401 -180q-63 0 -107 44t-36 88q8 43 33 71q26 28 54 36q28 9 58 -1t47 -42t17 -66q0 -41 -70 -70q-29 -12 1 -25q86 -31 168 113q54 94 91 231l248 912h-159l8 34h155l21 68
q112 418 547 449q348 22 411 -95q20 -37 25 -84q2 -68 -32 -114t-86 -66t-109 -12t-95 42q-68 62 -22 165q18 43 53 76t80 36q25 1 0 7t-122 12t-170 -11q-72 -15 -94 -43t-28 -70t-8 -98t-20 -124l-37 -138h143l442 72l-204 -758q-14 -58 -1 -80t43 -12q29 10 71 54t83 122
q6 16 17 9q10 -8 2 -23q-49 -109 -115 -167q-65 -57 -131 -77t-135 -6t-117 81q-18 24 -18 70z" />
    <glyph glyph-name="fl" horiz-adv-x="1163" 
d="M-287 -451q-63 0 -107 44t-36 88q8 43 32.5 70.5t53.5 36.5t57.5 -1t46.5 -42q18 -31 18 -55t-10 -40.5t-27 -25.5t-31.5 -15t-12.5 -13.5t49 -26.5t116.5 101.5t106.5 257.5l248 912h-160l9 34h155l21 68q42 156 116 243t174.5 141t255.5 65q55 4 83 -8.5t49 -20.5
l352 55l-346 -1274q-12 -47 1 -66.5t43.5 -5t76 63.5t94.5 141q6 16 12 5t-2 -26t-33.5 -61.5t-109 -132.5t-238.5 -86q-92 0 -131 68t-6 188l276 981q-32 -32 -71.5 -40t-65.5 16q-42 39 -18.5 91t80.5 73q6 2 1.5 6t-41.5 6t-118 -16q-31 -6 -44.5 -34t-20.5 -72
t-14 -103.5t-26 -126.5l-36 -138h165l-10 -34h-162l-217 -779q-20 -74 -70.5 -162.5t-178.5 -219t-349 -130.5z" />
    <glyph glyph-name="Lslash" horiz-adv-x="1128" 
d="M686 33q134 0 232 98q99 98 149 242q14 41 35 41q14 0 14 -23q-8 -18 -8 -37l-76 -288q-18 -66 -74 -66h-974l10 33h110l121 452l-186 -135l27 88l182 131l209 774h-111l6 33h551l-6 -33h-111l-145 -540l252 180l-27 -88l-248 -178l-184 -684h252z" />
    <glyph glyph-name="lslash" horiz-adv-x="671" 
d="M438 113q0 -57 43 -57t100.5 52t120.5 175q4 10 15 10q16 0 16 -17q1 -6 -21 -47q-64 -121 -146 -187.5t-216 -66.5t-168.5 69t-34.5 115t21 117l55 203l-176 -129l27 88l27 20q53 36 118 86l27 19l217 778l-119 -18l8 35l441 72l-175 -637l238 170l-27 -89l-235 -167
l-145 -535q-11 -46 -11 -59z" />
    <glyph glyph-name="Zcaron" horiz-adv-x="1189" 
d="M643 1745l19 16l221 -153l282 157l21 -20l-275 -272h-88zM791 1343q-179 0 -295 -73t-174 -250h-29l94 356h1012l-13 -49l-1042 -1294h309q168 0 277.5 94t191.5 287h37l-110 -414h-1041l15 53l1036 1290h-268z" />
    <glyph glyph-name="zcaron" horiz-adv-x="1034" 
d="M438 1346l19 16l221 -154l283 158l20 -20l-274 -273h-89zM143.5 565.5q-8.5 -0.5 -8.5 6.5t7 22q19 41 61 171.5t51 168.5q132 -26 702 -62q51 82 80 82t29 -13t-24.5 -47t-77.5 -71q-76 -92 -175.5 -157.5t-198.5 -124.5t-189.5 -117.5t-161.5 -130.5q211 37 322 37
q251 0 370 -90q36 -29 50.5 6t17.5 51t6 29q-35 -23 -73 -23t-71 25.5t-33 73t27 81t111 33.5t84 -129q0 -150 -110.5 -274.5t-303.5 -124.5q-152 0 -277 41q-61 23 -110 41t-115 18q-26 -96 -72 -96q-30 0 -30 35q0 61 79.5 181t214 212t239.5 154t196.5 118t138.5 109
q-180 -125 -537 -125q-102 0 -147 10q-12 -23 -24.5 -45.5t-25.5 -48.5t-21.5 -26.5z" />
    <glyph glyph-name="space" unicode=" " horiz-adv-x="550" 
 />
    <glyph glyph-name="exclam" unicode="!" horiz-adv-x="538" 
d="M640 1369.5q44 -31.5 44 -96.5t-18.5 -124t-47 -120.5t-61.5 -124t-55 -108.5q-97 -201 -146 -362l-65 15q43 192 53 319t14 210t13.5 162t29 141t55.5 91t88 29t96 -31.5zM430 160q0 -83 -49 -133t-130 -50t-120 45.5t-39 89.5q0 81 49 132t130 51t120 -45.5t39 -89.5z
" />
    <glyph glyph-name="quotedbl" unicode="&#x22;" horiz-adv-x="782" 
d="M733 915q1 12 15 67t14 120t-7 106t-7 75t7 59.5t22.5 47t39 36t58 14.5t62.5 -22.5t28 -56.5q1 -34 -11 -68t-65 -107.5t-88 -267.5q-8 -33 -38 -33t-30 30zM389 915q1 12 15 67t14 120t-7.5 106t-7.5 75t7.5 59.5t23 47t39 36t58 14.5t62.5 -22.5t28 -56.5
q1 -34 -11 -68t-65 -107.5t-88 -267.5q-8 -33 -38 -33t-30 30z" />
    <glyph glyph-name="numbersign" unicode="#" horiz-adv-x="1277" 
d="M608 666h232l129 245h-232zM764 965h231l144 270h166l-144 -270h219l-30 -54h-217l-132 -245h238l-33 -54h-231l-148 -282h-163l149 282h-233l-142 -272h-172l144 272h-222l35 54h213l129 245h-243l30 54h242l141 270h172z" />
    <glyph glyph-name="dollar" unicode="$" horiz-adv-x="1163" 
d="M887 286q0 198 -219 271l-144 -537q180 4 271.5 82t91.5 184zM218 135q-7 0 -7 -2q0 -23 71.5 -61.5t196.5 -48.5l146 544q-147 39 -226.5 128t-79.5 218q0 187 142.5 330.5t386.5 147.5l31 120h45l-33 -120q235 -22 290.5 -99.5t55.5 -134.5t-39.5 -88t-71.5 -31
q-55 0 -95 26t-40 76t26.5 82.5t76.5 32.5h20q16 0 16 15.5t-71.5 47t-175.5 38.5l-121 -445q174 -51 260 -162.5t86 -259.5q0 -213 -161 -356t-398 -143h-33l-45 -170h-43l43 172q-240 22 -297 102t-57 139.5t36.5 100.5t85.5 41t93.5 -30.5t44.5 -84.5q0 -53 -31 -89
t-94 -36h-34zM553 1110q0 -54 42 -110t128 -74l117 430q-140 -4 -213.5 -72t-73.5 -174z" />
    <glyph glyph-name="percent" unicode="%" horiz-adv-x="1867" 
d="M1284 119q0 -92 84 -92q75 0 108 75.5t51.5 143t41 149.5t43 157t20.5 122t-16.5 69.5t-62.5 22.5q-83 0 -118.5 -86.5t-72.5 -225.5t-57.5 -210.5t-20.5 -124.5zM1040 315q0 74 36 158t102.5 154.5t164 118t199.5 47.5t161.5 -24t97.5 -67t56.5 -102t18.5 -131t-35 -154
t-145 -198.5t-336 -116.5q-166 0 -243 88t-77 227zM465 -8h-96l1288 1407h96zM494 731q0 -47 18 -72.5t64 -25.5t73 26.5t48.5 75.5t40 117t41 149.5t43 156.5t20.5 122t-16.5 69.5t-62.5 22.5q-84 0 -119.5 -86.5t-72.5 -225.5t-57 -210.5t-20 -118.5zM250 922
q0 74 36 157.5t102.5 154.5t164 118t199.5 47t161.5 -23.5t97.5 -66.5t56 -102.5t18 -131t-34.5 -153.5t-144 -199t-337.5 -117q-166 0 -242.5 88.5t-76.5 227.5z" />
    <glyph glyph-name="ampersand" unicode="&#x26;" horiz-adv-x="1558" 
d="M78 282q0 374 514 468q-91 0 -170 71q-80 71 -80 180q0 154 127 265q152 131 418 131q154 0 229 -60q74 -60 74 -147q0 -88 -48 -146t-124 -59q-76 0 -122 34t-46 87q0 95 61 139q61 43 148 43q20 0 20 12t-50 35q-49 23 -125 23q-134 0 -226 -123t-90 -272
q0 -91 43 -141t106 -50h62q25 0 24 -16q0 -8 -9 -16t-26 -7h-61q-45 0 -105 -36q-135 -81 -209 -267q-38 -96 -38 -217q0 -191 157 -193q236 0 421 158q156 135 227 332q-10 -2 -37 -2l-238 10q-129 0 -169 -32t-40 -72q27 12 63 12q37 0 65 -29t28 -69t-29 -77
q-29 -36 -75 -36t-80 29q-34 28 -35 104q0 76 33 151q67 153 276 218q106 33 242 33q254 0 350 55t102 188q-30 -55 -84 -55q-53 0 -86 27q-32 27 -32 75t37 77q38 30 96 30q57 0 87 -51t30 -135q-2 -290 -257 -401q-86 -38 -202 -46q-139 -372 -448 -488q-113 -44 -233 -44
q-331 0 -432 172q-34 58 -34 128z" />
    <glyph glyph-name="quotesingle" unicode="'" horiz-adv-x="440" 
d="M389 915q1 12 15 67t14 120t-7.5 106t-7.5 75t7.5 59.5t23 47t39 36t58 14.5t62.5 -22.5t28 -56.5q1 -34 -11 -68t-65 -107.5t-88 -267.5q-8 -33 -38 -33t-30 30z" />
    <glyph glyph-name="parenleft" unicode="(" horiz-adv-x="946" 
d="M522 -96q45 -64 103 -64q92 0 136 -3t44 -31t-48 -30.5t-160 -2.5t-297 85.5t-185 497.5q0 236 159.5 562.5t403.5 423t350 96.5t140 -3t34 -24t-39 -24t-112 -3q-104 0 -202.5 -110t-170.5 -346q-8 -31 -27.5 -93.5t-41 -142.5t-45 -169t-55.5 -227t-32 -233t45 -159z
" />
    <glyph glyph-name="parenright" unicode=")" horiz-adv-x="946" 
d="M674 1133q0 107 -45 171t-103 64q-92 0 -136 3t-44 31t48 31t160 3t297 -85.5t185 -498.5q0 -235 -159.5 -562.5t-404 -423t-350.5 -95.5t-139.5 3t-33.5 21q0 23 39 26t112 3q104 0 202.5 110.5t170.5 346.5q129 400 165 600t36 252z" />
    <glyph glyph-name="asterisk" unicode="*" horiz-adv-x="837" 
d="M330 1239q0 27 20.5 47.5t43.5 20.5q49 0 75 -58q39 -88 84 -139t63 -70q29 102 29 187l-6 90q0 41 20.5 58.5t44.5 17.5t46 -17.5t22 -47.5t-46 -94t-85 -198q139 38 231 107q31 23 61 23t46 -21t16 -45.5t-16 -45t-49 -20.5l-96 4q-93 0 -189 -26q101 -101 209 -148
q57 -28 57 -64t-20.5 -56.5t-42.5 -20.5q-48 0 -74 59q-48 122 -143 209q-27 -111 -27 -182l4 -84q0 -43 -20 -62.5t-46 -19.5t-46.5 16.5t-20.5 45t11.5 44t27.5 37.5q29 40 55.5 104t36.5 107q-142 -41 -203 -83q-60 -42 -88 -42q-29 0 -47 21.5t-18 46.5t17.5 44.5
t58.5 19.5l92 -7q98 0 180 25q-82 92 -209 147q-59 25 -59 70z" />
    <glyph glyph-name="plus" unicode="+" horiz-adv-x="704" 
d="M352 694l76 275h109l-74 -275h264l-29 -110h-264l-76 -275h-108l74 275h-265l29 110h264z" />
    <glyph glyph-name="comma" unicode="," horiz-adv-x="550" 
d="M90 -252q-10 0 -10 9t16 16q125 29 212 113t100 163q4 10 4 39t-15 29q-6 0 -8 -8q-23 -91 -131 -91q-51 0 -94 39t-43 102t35 103q40 51 128 51q89 0 143 -56t54 -132v-19q0 -47 -33 -108t-77 -108q-102 -104 -262 -138q-9 -4 -19 -4z" />
    <glyph glyph-name="hyphen" unicode="-" horiz-adv-x="573" 
d="M522 682l-28 -109h-369l29 109h368z" />
    <glyph glyph-name="period" unicode="." horiz-adv-x="550" 
d="M449 160q0 -81 -49 -132t-130 -51q-82 0 -120.5 45.5t-38.5 89.5q0 82 48.5 132.5t129.5 50.5q82 0 121 -45.5t39 -89.5z" />
    <glyph glyph-name="slash" unicode="/" horiz-adv-x="638" 
d="M872 1487h76l-983 -1620h-88z" />
    <glyph glyph-name="zero" unicode="0" horiz-adv-x="1210" 
d="M291 142q-1 -124 121 -124q117 0 175 113q26 51 44 118t102 373t110 426q27 120 27 179t-23 97q-25 38 -91 38q-155 0 -226 -261q-18 -69 -48 -173t-94 -353q-65 -249 -81 -314t-16 -119zM-2 445q0 206 101 432t276 374t386 148q210 0 312 -128q101 -128 101 -334
q0 -205 -98 -427t-274 -375q-175 -153 -388 -153q-214 0 -315 129q-101 128 -101 334z" />
    <glyph glyph-name="one" unicode="1" horiz-adv-x="1210" 
d="M370 1081q-17 0 -18 9q0 14 50 26t115 43t127.5 68t120.5 76.5t109 72.5h175l-359 -1343h109l-8 -33h-529l8 33h111l311 1163q-140 -84 -256 -106q-49 -10 -66 -9z" />
    <glyph glyph-name="two" unicode="2" horiz-adv-x="1210" 
d="M889 1106q0 240 -158 242q-88 0 -166 -38t-119 -89q140 0 186 -81q17 -30 17 -75q0 -92 -55 -138t-127 -46t-119 41q-57 46 -57 119q0 141 148 248q148 108 335 108t296 -92q110 -92 110 -252q0 -217 -158 -393q-134 -147 -360 -238q-40 -23 -88 -41q-181 -69 -271 -141
h481q127 0 201 111q17 29 33 57t26 28t11 -14q0 -14 -17 -47l-192 -375h-785l17 55q43 150 402 401q240 167 324 311q85 143 85 339z" />
    <glyph glyph-name="three" unicode="3" horiz-adv-x="1210" 
d="M825 934q61 119 63 271q1 153 -109 153q-95 0 -153 -24t-61 -40q0 -6 17 -6q48 0 78 -38t30 -108t-48 -114q-48 -43 -114 -43q-153 0 -153 148q0 102 118 183t306 81q189 0 282 -78t93 -211t-112 -238t-304 -120q183 -43 240 -190q22 -54 22 -114q0 -164 -107 -287
q-63 -73 -182 -125t-289 -52t-258 72t-88 177q0 77 35 119q63 76 135 76t119 -38t47 -114q0 -105 -111 -137q-32 -8 -61 -8t-47 6h-4q-12 0 -12 -12q0 -32 39 -56q73 -45 190 -47q84 0 142 60q113 116 146 316q15 91 15 155q0 182 -154 182h-174q-27 0 -26 17q0 23 31 22
h180q156 0 239 162z" />
    <glyph glyph-name="four" unicode="4" horiz-adv-x="1210" 
d="M608 504l164 610q-270 -270 -532 -610h368zM1149 1376l-234 -872h191l-33 -123h-190l-92 -346h110l-10 -37h-529l11 37h108l94 346h-460l12 45q213 289 477 577.5t344 372.5h201z" />
    <glyph glyph-name="five" unicode="5" horiz-adv-x="1210" 
d="M418 252q0 -148 -166 -148q-20 0 -43 9q16 -27 59 -52.5t131 -25.5t157 58.5t133.5 184.5t64.5 324q0 170 -84 196.5t-132 26.5q-107 0 -194 -67q-16 -12 -26.5 -12.5t-10 10t16.5 34.5q31 45 77.5 223t62.5 257q15 78 28.5 93t46.5 15h491q99 0 116 26t28 26q6 0 6 -19
t-15.5 -70t-70 -144t-156.5 -93h-479q-59 -222 -94 -295q94 70 270 70t308 -87.5t132 -263.5q0 -242 -191.5 -389t-502.5 -147q-106 0 -180 62t-74 148q0 85 48 131t104 46q57 0 98 -31t41 -96z" />
    <glyph glyph-name="six" unicode="6" horiz-adv-x="1210" 
d="M537 778q87 82 227 82t245 -85.5t105 -252.5q0 -251 -185.5 -396.5t-449.5 -145.5q-167 0 -278 120.5t-111 340.5t121 448t315.5 370t409.5 142q135 0 201.5 -60.5t66.5 -144.5t-33 -137t-107 -53t-114.5 37.5t-40.5 104.5t39 109.5t115 42.5h8q12 0 12 9
q0 14 -34.5 34.5t-96.5 20.5q-114 0 -206.5 -91t-139.5 -249zM780 686q0 125 -92 125q-54 0 -108.5 -42.5t-69.5 -88.5q-14 -46 -74.5 -242t-60.5 -270q0 -145 104 -145q123 0 197.5 223t89 323.5t14.5 116.5z" />
    <glyph glyph-name="seven" unicode="7" horiz-adv-x="1210" 
d="M373 1122q-67 0 -101 -32.5t-88 -131.5h-28l202 420h873l16 -32l-321 -433q-294 -400 -430 -913h-359q157 393 456.5 695t432.5 427h-653z" />
    <glyph glyph-name="eight" unicode="8" horiz-adv-x="1210" 
d="M375 94q0 -84 82 -84q45 0 73 18q58 38 96 171q68 245 83 318q14 73 14 116q0 92 -75 92t-122 -85q-37 -64 -94 -269t-57 -277zM584 861q0 -59 17 -77t56 -18t65 14q47 26 78 115q31 90 60 215q28 125 28 168q0 42 -14 64q-16 22 -56 22q-73 0 -115 -76q-23 -39 -71 -204
t-48 -223zM884 672q122 -93 122 -276t-149 -301q-149 -117 -390 -115q-176 0 -271 86t-96 241q0 191 151 309t335 125q20 0 20 4q0 3 -22 5q-83 6 -155 56q-110 75 -110 215t125 255t359 115q166 0 255 -82t90 -220q1 -139 -111 -231t-316 -108q-16 -1 -16 -7q6 -2 20 -3
t62 -16q49 -15 97 -52z" />
    <glyph glyph-name="nine" unicode="9" horiz-adv-x="1210" 
d="M528 514q-234 0 -286 114.5t-52 192.5q0 266 187 422t422 156q168 0 274.5 -112.5t106.5 -326.5t-100 -444.5t-294 -384.5t-454 -154q-110 0 -181 61.5t-71 142.5t42 130t111 49t107.5 -38.5t38.5 -103.5t-37.5 -110t-108.5 -45q-18 0 -18 -9t34 -24.5t87 -15.5
q100 0 197.5 87t148.5 253l78 256q-92 -96 -232 -96zM506 690q0 -119 72.5 -119t125 41t80.5 93q116 397 126 452t10 80q0 133 -109 133q-128 0 -212.5 -288t-88.5 -331.5t-4 -60.5z" />
    <glyph glyph-name="colon" unicode=":" horiz-adv-x="643" 
d="M567 752q0 -82 -48.5 -132.5t-129.5 -50.5q-82 0 -121 45.5t-39 89.5q0 81 49 132t130 51q82 0 120.5 -45.5t38.5 -89.5zM449 160q0 -81 -49 -132t-130 -51q-82 0 -120.5 45.5t-38.5 89.5q0 82 48.5 132.5t129.5 50.5q82 0 121 -45.5t39 -89.5z" />
    <glyph glyph-name="semicolon" unicode=";" horiz-adv-x="581" 
d="M567 752q0 -82 -48.5 -132.5t-129.5 -50.5q-82 0 -121 45.5t-39 89.5q0 81 49 132t130 51q82 0 120.5 -45.5t38.5 -89.5zM60 -252q-10 0 -11 9q0 9 17 16q124 28 210.5 111.5t100.5 164.5q4 10 4 39t-14 29q-6 0 -20.5 -49.5t-119.5 -49.5q-51 0 -94 39t-43 101
q0 103 57.5 129t102.5 26q92 0 146.5 -56t54.5 -132v-33q0 -33 -69 -160.5t-304 -179.5q-8 -4 -18 -4z" />
    <glyph glyph-name="less" unicode="&#x3c;" 
d="M823 969l-30 -111l-439 -227l355 -258l-31 -99l-481 365z" />
    <glyph glyph-name="equal" unicode="=" horiz-adv-x="661" 
d="M680 811l-29 -111h-504l29 111h504zM608 535l-30 -109h-506l32 109h504z" />
    <glyph glyph-name="greater" unicode="&#x3e;" 
d="M193 422l430 221l-310 225l27 101l451 -330l-631 -330z" />
    <glyph glyph-name="question" unicode="?" horiz-adv-x="815" 
d="M502 160q0 -81 -49 -132t-130 -51t-120 45.5t-39 89.5q0 82 48.5 132.5t129.5 50.5q82 0 121 -45.5t39 -89.5zM952 1083q0 -94 -35.5 -172t-166.5 -168q-53 -35 -108.5 -62.5t-135 -74t-96.5 -112.5l-27 -97h-33l84 322q30 123 103 168t107 65q78 47 116.5 95.5
t38.5 130.5t-38 116.5t-115 34.5t-138 -45q55 -4 82.5 -44t27.5 -89t-35 -90t-101 -41t-101 36t-35 84q0 95 83.5 160.5t224.5 65.5t219.5 -71t78.5 -212z" />
    <glyph glyph-name="at" unicode="@" horiz-adv-x="1509" 
d="M582 452q0 -76 53 -75q100 0 156.5 65.5t72.5 96.5l191 358q4 12 4 18q0 29 -32 61t-81 32t-114.5 -55.5t-121 -140.5t-92 -184.5t-36.5 -175.5zM1014 424q0 -49 78 -49t150.5 29.5t124.5 87t81 140.5t29 240.5t-147.5 273.5t-352.5 116q-125 0 -253 -57.5t-231.5 -157
t-169 -231.5t-65.5 -256t36 -208t136 -178t282.5 -94t368.5 76q29 10 48.5 19t29.5 9q27 0 27 -28q0 -18 -17 -31t-73 -37q-174 -72 -363 -72q-231 0 -384.5 141t-153.5 373q0 174 71.5 318.5t184 249t252 163t264.5 58.5q248 0 410.5 -132t162.5 -366t-128 -373t-378 -139
q-79 0 -143 29t-64 88q-72 -86 -146.5 -99.5t-80.5 -13.5q-92 0 -140 60.5t-48 145.5t33.5 176t99 170t165 132.5t228.5 53.5q72 0 104.5 -27t49.5 -57l32 61h176l-268 -541q-18 -41 -18 -63z" />
    <glyph glyph-name="A" unicode="A" horiz-adv-x="1382" 
d="M784 1047l-350 -586h389zM1100 1395l86 -1362h178l-10 -33h-695l9 33h184l-27 395h-409l-166 -287q-25 -41 -8 -74.5t88 -33.5l-8 -33h-310l11 33q110 0 182 106l751 1256h144z" />
    <glyph glyph-name="B" unicode="B" horiz-adv-x="1210" 
d="M768 768q150 0 223 190q4 14 31 90t28 144t-31 110t-114 41h-104l-154 -575h121zM899 596q0 139 -119 139h-143l-186 -702h143q102 0 148 58t81 163q4 14 40 135q36 122 36 207zM915 1376q414 0 414 -286q0 -139 -107 -229q-108 -89 -341 -105q147 -23 232 -105t85 -221
q0 -293 -283 -392q-109 -38 -274 -38h-639l8 33h111l350 1310h-111l11 33h544z" />
    <glyph glyph-name="C" unicode="C" horiz-adv-x="1327" 
d="M1032 106q-164 -141 -410 -141q-104 0 -201 42t-190.5 149.5t-93.5 332.5q0 154 60.5 316t176 294t281.5 217t361 85t321 -105l86 72q23 14 35 14t12 -15t-2 -24l-94 -352q-6 -23 -20 -22q-18 0 -19 32q0 147 -79 256t-214 109q-185 0 -267 -102.5t-137.5 -290
t-86.5 -305t-68 -251.5t-37 -230q0 -95 51.5 -140t168.5 -45q203 0 346.5 174.5t189.5 251.5q12 18 26.5 18t14.5 -18q0 -8 -2 -14l-102 -408q-6 -25 -23 -24q-12 0 -24 18z" />
    <glyph glyph-name="D" unicode="D" horiz-adv-x="1298" 
d="M594 33q249 0 377 452q27 98 63 227q80 285 80 410q0 167 -109 209q-32 12 -67 12h-102l-351 -1310h109zM971 1376q193 0 300 -152t105 -376q0 -145 -47 -296q-100 -323 -374 -474q-140 -78 -324 -78h-596l14 33h109l346 1310h-111l10 33h568z" />
    <glyph glyph-name="E" unicode="E" horiz-adv-x="1236" 
d="M799 709h-148l-180 -676h252q134 0 232 98q99 98 149 242q14 41 35 41q14 0 14 -23q0 -4 -8 -37l-76 -288q-18 -66 -74 -66h-972l8 33h110l351 1310h-113l8 33h911q51 0 52 -39q0 -18 -13 -61l-69 -258q-9 -31 -23 -31t-14 25l2 49q0 176 -115 254q-43 29 -106 28h-191
l-159 -602h147q66 -1 113 57t84 134q8 18 22 18t14 -18v-4t-2 -13l-110 -444q-6 -23 -19 -22q-18 0 -18 28l2 68q0 164 -96 164z" />
    <glyph glyph-name="F" unicode="F" horiz-adv-x="1161" 
d="M782 709h-147l-180 -676h108l-8 -33h-551l8 33h111l350 1310h-113l11 33h911q51 0 51 -39q0 -18 -8 -51l-74 -268q-8 -31 -22 -31q-15 1 -15 15t2 58q4 103 -45 184q-60 101 -172 99h-194l-160 -602h148q67 -1 113 57t83 134q5 18 21 18t16 -18q0 -6 -6 -31l-107 -430
q-6 -23 -20 -22q-16 0 -16 28l2 68q0 164 -97 164z" />
    <glyph glyph-name="G" unicode="G" horiz-adv-x="1355" 
d="M999 1399q216 0 326 -105l88 58q21 14 29 14t8 -6t-6 -25l-74 -274q-10 -33 -22.5 -33t-20.5 41q-31 156 -102 224.5t-221 68.5t-240 -116t-150 -333q-10 -39 -25.5 -95t-71.5 -272t-56 -319q0 -223 174 -223q236 0 307 270l49 191h-110l8 35h551l-8 -35h-111l-64 -238
q-127 -114 -267 -187t-378 -73t-368.5 148.5t-130.5 371.5t138 492t372.5 344.5t375.5 75.5z" />
    <glyph glyph-name="H" unicode="H" horiz-adv-x="1427" 
d="M907 1376l-8 -33h-111l-157 -593h385l158 593h-113l10 33h551l-8 -33h-111l-346 -1310h119l-12 -33h-559l8 33h110l183 682h-385l-183 -682h111l-10 -33h-549l8 33h111l350 1310h-111l8 33h551z" />
    <glyph glyph-name="I" unicode="I" horiz-adv-x="827" 
d="M969 1343h-111l-350 -1310h119l-9 -33h-559l9 33h110l350 1310h-110l10 33h549z" />
    <glyph glyph-name="J" unicode="J" horiz-adv-x="890" 
d="M166 -164q120 0 182 221l344 1286h-110l8 33h551l-8 -33h-111l-287 -1067q-57 -208 -211 -343q-154 -134 -364 -134q-100 0 -153 56q-52 56 -52 123t35 113q34 46 102 46t101 -41t33 -93t-37 -96q-36 -44 -107 -44h-16q36 -27 100 -27z" />
    <glyph glyph-name="K" unicode="K" horiz-adv-x="1382" 
d="M1350 1343h-111l10 33h281l-8 -33h-111l-483 -413l264 -897h108l-8 -33h-581l10 33h108l-180 710zM895 1343h-111l-350 -1310h111l-10 -33h-551l10 33h110l351 1310h-111l8 33h551z" />
    <glyph glyph-name="L" unicode="L" horiz-adv-x="1128" 
d="M686 33q134 0 232 98q99 98 149 242q14 41 35 41q14 0 14 -23q0 -4 -8 -37l-76 -288q-18 -66 -74 -66h-974l10 33h110l353 1310h-111l6 33h551l-6 -33h-111l-352 -1310h252z" />
    <glyph glyph-name="M" unicode="M" horiz-adv-x="1728" 
d="M164 98q0 -22 20 -44t66 -21l-10 -33h-256l10 33q108 0 139 106l322 1204h-111l8 33h441l88 -921l581 921h459l-10 -33h-109l-350 -1310h109l-9 -33h-551l11 33h108l344 1284l-819 -1317h-59l-107 1309l-311 -1170q-4 -19 -4 -41z" />
    <glyph glyph-name="N" unicode="N" horiz-adv-x="1241" 
d="M1339 1274q0 70 -88 69l11 33h256l-11 -33q-108 0 -139 -106l-338 -1253h-69l-488 1140l-262 -985q-4 -19 -4 -41t20 -44t66 -21l-10 -33h-256l10 33q108 0 139 106l281 1047l-86 157l8 33h399l365 -854l192 715q4 21 4 37z" />
    <glyph glyph-name="O" unicode="O" horiz-adv-x="1435" 
d="M1190 1184q0 72 -44 124q-44 54 -142 54t-158 -37q-117 -73 -174 -241q-29 -81 -54 -169l-133 -493q-38 -148 -38 -226q-1 -80 42 -136t149 -56t168 39q114 74 167 238q25 76 45 149l133 500q16 66 28 124q11 58 11 130zM137 478q0 338 220 616q152 188 382 265
q119 40 255 40q257 0 387 -146t128 -366q0 -154 -56 -318q-118 -345 -436 -516q-161 -86 -370 -86q-251 0 -381 145q-129 145 -129 366z" />
    <glyph glyph-name="P" unicode="P" horiz-adv-x="1198" 
d="M737 664q74 0 129.5 54t91 128t54 152.5t18.5 127.5q0 119 -49 168t-127 49h-72l-180 -679h135zM973 1376q154 0 253 -82.5t99 -255.5t-133 -290t-399 -117h-201l-160 -598h111l-11 -35h-548l10 35h106l351 1310h-109l8 33h623z" />
    <glyph glyph-name="Q" unicode="Q" horiz-adv-x="1421" 
d="M1190 1184q0 72 -44 124q-44 54 -142 54t-158 -37q-117 -73 -174 -241q-29 -81 -54 -169l-133 -493q-38 -148 -38 -226q-1 -80 42 -136t149 -56t168 39q114 74 167 238q25 76 45 149l133 500q16 66 28 124q11 58 11 130zM479 -167q0 85 33 147q-187 38 -281 173t-94 338
q0 204 99 410q166 345 503 458q119 40 255 40q257 0 387 -146t128 -366q0 -143 -48 -295q-102 -323 -376 -501q-139 -91 -319 -116q-24 -41 -41 -120q-16 -80 -16 -115q1 -35 23 -70q45 -70 140 -96q45 -12 91 -12h14l-8 -27q-33 -14 -99 -14t-136 16q-71 16 -128 53
q-57 38 -92 98t-35 145z" />
    <glyph glyph-name="R" unicode="R" horiz-adv-x="1355" 
d="M725 735q104 0 165.5 55.5t103.5 149t42 209.5t-49 154t-135 38h-74l-164 -606h111zM1083 146q0 -22 5.5 -43t37.5 -21q64 0 152 100q18 20 31 21q10 0 10 -12.5t-10 -24.5q-68 -96 -163 -144.5t-186 -48.5t-148.5 46.5t-57.5 128.5t24 165q46 159 45 216q0 99 -61 136
t-156 37l-176 -667h109l-11 -35h-551l13 35h108l348 1308h-108l8 33h635q162 0 261 -78.5t99 -214.5q0 -176 -129.5 -272t-347.5 -111q120 -12 173 -44.5t81.5 -76t28.5 -101.5t-10.5 -103t-21.5 -88t-21.5 -81t-10.5 -60z" />
    <glyph glyph-name="S" unicode="S" horiz-adv-x="1140" 
d="M868 1399q163 0 267 -109l73 72q22 22 34 22t13 -10v-16q0 -4 -4 -17l-69 -249q-4 -16 -8 -24t-16 -7q-12 0 -15 12q-4 12 -9 49q-13 97 -87 168q-74 72 -210 72q-137 0 -211 -62q-75 -62 -75 -149q-1 -115 111 -179q62 -36 129 -76q66 -40 129 -75q239 -133 239 -359
q0 -327 -330 -439q-115 -39 -276 -39q-217 0 -336 143l-102 -98q-31 -31 -46 -31t-15 14t9 51l84 316q13 45 25 45t18 -9t11 -38q42 -355 352 -357q144 0 240 82q84 76 84 176t-78 152t-162 101q-84 48 -193 116q-82 53 -125 137t-43 172q0 186 139 308q157 135 453 135z
" />
    <glyph glyph-name="T" unicode="T" horiz-adv-x="1259" 
d="M1360 1058q0 122 -60 203.5t-137 81.5h-82l-350 -1310h111l-11 -33h-548l8 33h110l351 1310h-37q-129 0 -242 -92t-184 -266h-43l121 344q10 27 23 37t44 10h987q39 0 39 -35q0 -14 -6 -38l-55 -332h-43q4 33 4 87z" />
    <glyph glyph-name="U" unicode="U" horiz-adv-x="1282" 
d="M508 250q0 -195 215 -195q137 -1 245 103t154 280l221 801q5 17 5 35q0 70 -88 69l10 33h256l-10 -33q-105 0 -138 -106l-219 -817q-59 -223 -201 -332q-142 -108 -338 -108t-311 82t-114 235q0 80 22 166l234 880h-109l8 33h551l-10 -33h-109l-239 -894
q-35 -128 -35 -199z" />
    <glyph glyph-name="V" unicode="V" horiz-adv-x="1277" 
d="M1360 1286q0 22 -22.5 39.5t-75.5 17.5l8 33h291l-9 -33q-108 0 -168 -104l-692 -1268h-166l-75 1372h-109l8 33h551l-10 -33h-109l58 -1028l510 930q10 19 10 41z" />
    <glyph glyph-name="W" unicode="W" horiz-adv-x="1822" 
d="M1974 1282q0 24 -21.5 44t-70.5 20l10 32h291l-10 -32q-104 0 -166 -105l-661 -1261h-127l-66 860l-463 -860h-133l-102 1361h-113l8 35h547l-10 -35h-103l68 -972l297 540l-35 432h-82l10 35h525l-11 -35h-110l74 -938l446 838q8 17 8 41z" />
    <glyph glyph-name="X" unicode="X" horiz-adv-x="1374" 
d="M1331 1298q0 45 -76 45l9 33h309l-8 -33q-105 0 -209 -114l-398 -410l222 -786h112l-8 -33h-557l8 33h113l-150 540l-428 -432q-41 -46 -43 -71q0 -37 76 -37l-8 -33h-291l8 33q107 11 203 104l469 477l-205 729h-102l8 33h551l-8 -33h-115l131 -473l342 349q45 45 45 79
z" />
    <glyph glyph-name="Y" unicode="Y" horiz-adv-x="1374" 
d="M1395 1296q0 49 -80 50l8 32h326l-9 -32q-121 0 -223 -125l-422 -562l-168 -626h111l-8 -33h-551l8 33h111l153 573l-200 737h-109l8 33h568l-9 -33h-110l159 -659l408 543q29 41 29 69z" />
    <glyph glyph-name="Z" unicode="Z" horiz-adv-x="1189" 
d="M791 1343q-179 0 -279 -63q-133 -83 -190 -260h-29l94 356h1012l-13 -49l-1042 -1294h309q168 0 278 94t191 287h37l-110 -414h-1041l15 53l1036 1290h-268z" />
    <glyph glyph-name="bracketleft" unicode="[" horiz-adv-x="518" 
d="M334 -143h-342l440 1646h352l-12 -43h-131l-418 -1560h123z" />
    <glyph glyph-name="backslash" unicode="\" horiz-adv-x="638" 
d="M338 1487h76l129 -1620h-78z" />
    <glyph glyph-name="bracketright" unicode="]" horiz-adv-x="518" 
d="M549 1460h-133l12 43h352l-440 -1646h-344l10 43h123z" />
    <glyph glyph-name="asciicircum" unicode="^" horiz-adv-x="694" 
d="M700 668l-24 -9l-170 410l-336 -414l-18 19l337 555h89z" />
    <glyph glyph-name="underscore" unicode="_" horiz-adv-x="595" 
d="M-2 -6h614l-6 -27h-614z" />
    <glyph glyph-name="grave" unicode="`" 
d="M332 1352h170l119 -308l-35 -10z" />
    <glyph glyph-name="a" unicode="a" horiz-adv-x="1329" 
d="M371 145q-1 -57 33 -88q91 -84 253 49q88 74 101 127l110 400q6 20 8 26q1 5 1 17t-12 43q-24 69 -92 114q-34 22 -77 21q-82 0 -130 -59q-47 -60 -74 -154l-103 -373q-18 -66 -18 -123zM657 897q180 0 240 -154l39 138h324l-179 -688q-8 -31 -8 -60q0 -70 49 -70
q37 -1 89 49t104 156q6 12 19 12q14 0 14 -14q0 -15 -35 -80q-114 -211 -309 -211q-117 0 -177 54t-69 121q-115 -166 -299 -166q-127 0 -231 105t-103 284q0 226 162 375t370 149z" />
    <glyph glyph-name="b" unicode="b" horiz-adv-x="1075" 
d="M1040.5 809.5q71.5 -89.5 71.5 -206.5t-38 -224t-108.5 -196t-169 -146t-221.5 -57q-197 0 -312.5 85t-115.5 259q0 82 27 174l232 845l-115 -22l8 33l438 76l-164 -644q54 60 103 86.5t171 26.5t193.5 -89.5zM518 23q57 0 92 27.5t58 103.5l139 516q14 51 14 92
q0 84 -71 84t-132 -63t-83 -140l-121 -432q-32 -108 7.5 -148t96.5 -40z" />
    <glyph glyph-name="c" unicode="c" horiz-adv-x="972" 
d="M391 441q-47 -204 -47 -262q0 -154 162 -154t293 134q45 46 80 109q8 14 20 15q16 0 16 -20t-53 -87q-155 -197 -383 -194q-164 0 -284 104q-121 104 -121 274q0 204 158 360q177 173 458 173q185 0 253 -87q26 -32 26 -90t-41 -86t-89 -28t-87 30t-39 78t23 81
q24 33 52 35t27 10q0 8 -35 16t-89 8q-105 0 -155 -48q-28 -26 -63 -97q-35 -70 -82 -274z" />
    <glyph glyph-name="d" unicode="d" horiz-adv-x="1220" 
d="M650 887q138 0 196 -109l151 565l-114 -22l8 33l424 71l-326 -1212q-6 -25 -10 -40t-4 -38q0 -57 43 -57q33 0 89 45t130 151q8 14 23 15q18 0 18 -18t-110.5 -157t-276.5 -139q-137 0 -165 54.5t-30 76.5q-49 -63 -110.5 -96t-153.5 -33q-171 0 -256.5 99.5t-85.5 267.5
q0 86 38 182.5t108.5 176t173 132t240.5 52.5zM410 135q0 -98 93 -98q50 0 104.5 43t76.5 121l141 504q-42 126 -139 126q-61 0 -90.5 -47.5t-51.5 -119.5q-134 -454 -134 -529z" />
    <glyph glyph-name="e" unicode="e" horiz-adv-x="987" 
d="M770 743q0 121 -98 121q-113 0 -168 -138q-17 -40 -29 -83l-55 -201q69 -12 92 -12q114 0 186 79t72 234zM506 18q130 0 240 65t188 175q12 16 25 16t13 -28t-68 -94q-183 -175 -379 -176q-215 -2 -317 105q-102 106 -102 263q0 96 39 194q83 210 299 309q112 50 224 50
q267 0 332 -156q20 -45 20 -101t-30 -104q-94 -157 -384 -157q-102 0 -194 31l-33 -140q-17 -75 -18 -132q-1 -56 45 -88t100 -32z" />
    <glyph glyph-name="f" unicode="f" horiz-adv-x="638" 
d="M830 1391q186 0 186 -119q0 -47 -28 -85t-78 -38q-50 -1 -81 23t-30 67q0 80 73 98q10 3 10 13t-33 10q-35 0 -61 -9t-39 -38t-21 -73t-17 -102q-8 -58 -27 -126l-37 -138h166l-10 -34h-164l-213 -779q-56 -201 -211 -356q-156 -156 -371 -156q-72 0 -116 32
q-44 31 -45 93t33 90t79 29q45 0 72 -34q27 -33 27 -73t-24 -60t-42 -23q-18 -5 -18 -13t34 -8q143 0 238 346l248 912h-160l8 34h160l20 68q87 294 320 410q80 39 152 39z" />
    <glyph glyph-name="g" unicode="g" horiz-adv-x="985" 
d="M741 -240q0 99 -143 134q-57 14 -152 14h-159q-72 0 -148 -81q-76 -83 -76 -165q0 -152 277 -156q136 0 256 63q145 76 145 191zM607 332q-89 0 -146 10q-99 -16 -155 -36t-56 -60q0 -27 36 -33t74 -6h132q200 0 282 -53t82 -172q0 -174 -89 -310q-37 -57 -109 -105
q-151 -101 -369 -100q-217 1 -302 103q-30 37 -30 81q0 137 137 216q47 27 113 39q-53 8 -94 46t-41 110q0 198 192 263q59 19 129 31q-98 47 -135 143q-14 36 -14 87q0 118 114 214q114 95 294 95q181 0 239 -41q14 -10 27 -16q-27 68 -27 133t33 112q35 54 83 55
q47 1 73 -22q26 -22 26 -60t-25 -61t-67 -23t-74 42q-20 -10 -20 -66t21 -100q21 -43 29 -55q26 -41 25 -125q0 -205 -219 -301q-80 -35 -169 -35zM682 866q-55 0 -81 -45t-49 -135t-40 -157q-18 -68 -18 -95q0 -63 74 -63t99 81q7 26 16 62t36 136q27 101 31 151
q0 65 -68 65z" />
    <glyph glyph-name="h" unicode="h" horiz-adv-x="1236" 
d="M1174 682q0 -43 -17 -109l-102 -374q-6 -25 -6 -43q1 -45 29 -45t70 42t95 146q6 8 14 8q17 0 17 -15t-47 -94t-111.5 -140.5t-210.5 -61.5q-70 0 -113.5 42t-43.5 106t14 108l115 428q10 37 10 74t-16.5 66.5t-66 29.5t-128 -63.5t-92.5 -120.5l-174 -666h-310l363 1341
l-115 -18l8 31l435 61l-170 -631q74 64 131 88.5t171 24.5t182.5 -53t68.5 -162z" />
    <glyph glyph-name="i" unicode="i" horiz-adv-x="686" 
d="M672 1077.5q-49 -53.5 -130 -53.5t-117 43t-36 87q0 84 49.5 135.5t128.5 51.5q80 0 117 -44t37 -105t-49 -114.5zM473 80q29 0 73 46t95 148q8 18 22.5 19t14.5 -15t-6 -28q-57 -125 -137 -200t-216 -75q-80 0 -127 41t-47 121q0 37 13 86l174 637l-117 -14l10 35
l437 65l-203 -747q-15 -52 -15 -86q0 -33 29 -33z" />
    <glyph glyph-name="j" unicode="j" horiz-adv-x="581" 
d="M672 1077.5q-49 -53.5 -130 -53.5t-117 43t-36 87q0 84 49.5 135.5t128.5 51.5q80 0 117 -44t37 -105t-49 -114.5zM-108 -524q-88 0 -135.5 39t-47.5 99t34 95t92 35t83 -37t25 -83t-29 -69.5t-70 -23.5q14 -8 43 -8t67 26.5t56 92.5l330 1224l-115 -18l8 33l437 65
l-285 -1061q-50 -185 -183.5 -297t-309.5 -112z" />
    <glyph glyph-name="k" unicode="k" horiz-adv-x="1265" 
d="M1341.5 252q10.5 0 10.5 -13t-40 -82t-98 -125.5t-163 -56.5q-104 0 -172 32.5t-86.5 119t-48 258t-97.5 190.5q-38 9 -82 9l-153 -584h-314l361 1343l-113 -22l8 33l434 71l-213 -809h95q53 0 88 39t62 81q62 97 109 145.5t114 48.5t102 -31t35 -88t-36 -86t-76 -29
t-78 28t-38 83q0 23 9 37q-20 -6 -27 -16l-73 -110q-55 -82 -105 -108q104 0 152 -22.5t78 -55t45 -80.5q28 -89 46.5 -185.5t32.5 -150.5t49 -54q73 -1 168 180q4 10 14.5 10z" />
    <glyph glyph-name="l" unicode="l" horiz-adv-x="671" 
d="M438 113q0 -57 43 -57t100.5 52t120.5 175q4 10 15 10q16 0 16 -17q1 -6 -21 -47q-64 -121 -146 -187.5t-216 -66.5t-168.5 69t-34.5 115t21 117l295 1065l-119 -18l8 35l441 72l-344 -1258q-11 -46 -11 -59z" />
    <glyph glyph-name="m" unicode="m" horiz-adv-x="1792" 
d="M1720 690q0 -53 -14 -102l-102 -373q-27 -104 22 -104q27 0 70 44t96 144q8 14 20 14q23 0 9 -28q-55 -133 -147.5 -214t-221.5 -81q-78 0 -118 49t-40 121q0 31 11 71l102 387q27 111 27 156q0 72 -45 72q-71 0 -152 -86t-100 -158l-162 -602h-303l170 627q20 69 20 145
t-53 76t-135 -73t-107 -161l-168 -614h-309l225 840l-112 -19l8 35l436 72l-35 -164q100 139 295 139q235 0 254 -164q115 162 301 162q137 0 197.5 -59.5t60.5 -151.5z" />
    <glyph glyph-name="n" unicode="n" horiz-adv-x="1171" 
d="M811 762q0 82 -55 82t-134 -69t-104 -163l-166 -612h-303l225 844l-116 -23l10 35l438 68l-49 -168q53 63 126 106t183 43q110 1 169 -67q58 -68 59 -160q0 -51 -17 -105l-88 -323q-18 -74 -18 -90q0 -54 29 -54q54 -1 163 187q11 16 23 16t12 -9t-4 -21
q-53 -125 -142 -207t-214 -82q-80 0 -121 48t-41 112t16 126l99 367q20 80 20 119z" />
    <glyph glyph-name="o" unicode="o" horiz-adv-x="1048" 
d="M379 150q0 -140 115 -140q105 0 199.5 300t94.5 444q0 36 -21.5 70t-75.5 34q-90 0 -136 -72.5t-79 -202.5q-34 -130 -52 -206t-31.5 -132.5t-13.5 -94.5zM115 374q0 98 44 196t117.5 169.5t170 113.5t200.5 42q195 0 302.5 -104.5t107.5 -286.5q0 -226 -157.5 -377.5
t-391.5 -151.5q-190 0 -291.5 105.5t-101.5 293.5z" />
    <glyph glyph-name="p" unicode="p" horiz-adv-x="1165" 
d="M596 37q57 0 92 45q34 46 58 134t46 168q84 305 86 381q1 77 -59 77q-71 0 -149 -75q-77 -75 -90 -128l-103 -385q-10 -36 -10 -85t36 -91t93 -41zM863 901q147 0 233 -97q73 -87 73 -233q-1 -98 -37 -201q-36 -102 -108 -188q-163 -193 -410 -194q-86 0 -124 32t-54 76
l-164 -614h134l-9 -33h-565l10 33h113l377 1384l-117 -18l16 33l433 65l-48 -174q44 47 104 88t143 41z" />
    <glyph glyph-name="q" unicode="q" horiz-adv-x="1091" 
d="M797 682q2 6 2 31q1 25 -25 63q-47 68 -109 69t-99 -70q-36 -71 -104 -310q-69 -239 -69 -335q0 -97 70 -95q69 0 140 74t83 135l102 409q6 23 9 29zM600 901q108 0 156 -41t67 -88l33 109h309l-377 -1401h111l-10 -33h-549l8 33h131l168 618q-99 -114 -237 -114
q-88 0 -144 28q-163 78 -164 300q-2 222 134 398q66 86 160 138q96 53 204 53z" />
    <glyph glyph-name="r" unicode="r" horiz-adv-x="907" 
d="M1026 738q0 -73 -48 -108.5t-113 -35.5t-104.5 42t-39.5 91t21.5 82t56.5 43q-72 -14 -135.5 -66.5t-85.5 -136.5l-177 -649h-309l230 844l-113 -19l8 33l434 72l-41 -154q100 115 258 115q68 0 113 -40t45 -113z" />
    <glyph glyph-name="s" unicode="s" horiz-adv-x="849" 
d="M375 8q174 0 174 156q0 123 -170 217t-170 228t106 213t269 79q231 0 302 -114q19 -31 19 -67q-1 -36 -25 -66t-68 -30t-74 24t-30 59q1 68 58 90q14 6 14 14q0 17 -50 37t-120 20q-163 0 -164 -106q0 -43 35 -82t127 -86q197 -102 197 -295q0 -139 -111 -232
q-111 -92 -292 -92q-180 0 -277 72t-94 158q0 49 30 85q31 36 80 36t85 -29t36 -77t-32 -76t-74 -33q-28 -9 -2 -30q48 -38 110 -56q62 -17 111 -17z" />
    <glyph glyph-name="t" unicode="t" horiz-adv-x="722" 
d="M535 45q103 0 174 137q10 19 25 12q15 -8 7 -28q-35 -80 -111 -135t-169 -55q-173 -1 -247 107t-30 275l111 412h-148l9 33h147l21 78q128 48 190 102q109 93 184 242h27l-115 -422h176l-8 -33h-176l-143 -553q-25 -92 1 -132t75 -40z" />
    <glyph glyph-name="u" unicode="u" horiz-adv-x="1224" 
d="M180 232q0 82 27 182l117 428l-115 -15l8 33l428 53l-156 -596q-28 -100 -28 -186t55 -86t126.5 64.5t107.5 199.5l153 572h305l-194 -731q-4 -16 -4 -33t12 -32t40 -15t78 44t109 158q8 20 21 21q16 0 16 -23t-54 -102.5t-122 -135t-203 -55.5q-172 0 -172 193
q-47 -85 -122 -141t-212 -56q-87 0 -131.5 37t-67 88.5t-22.5 133.5z" />
    <glyph glyph-name="v" unicode="v" horiz-adv-x="1200" 
d="M1165 594q-4 0 -8 -2q-43 -23 -105 -23t-113 47q-52 47 -52 124t53 126t136 49t132 -51t49 -149t-107 -278q-107 -181 -268 -321q-162 -141 -315 -141q-201 0 -272 137q-25 46 -25 124t23 152q23 75 65 189t43 195q0 57 -49 57t-106 -67q-56 -67 -101 -158
q-10 -22 -25 -22q-30 0 -4 50q60 112 102 156q94 99 219 99t183 -52t58 -163q0 -49 -25 -122t-69 -205t-43 -226q0 -94 75 -92q159 0 367 252q110 135 156 225q47 90 26 90z" />
    <glyph glyph-name="w" unicode="w" horiz-adv-x="1771" 
d="M270 236q0 78 23 152q23 75 65 189t43 195q0 57 -49 57t-106 -67q-56 -67 -101 -158q-10 -22 -25 -22q-30 2 -4 50q60 112 102 156q94 99 219 99t183 -52t58 -163q0 -49 -25 -122t-69 -205t-43 -200q0 -67 17 -93q16 -26 54 -26t74 30q74 60 140 185q32 58 51 115
l167 525h269l-180 -605q-45 -157 5 -215q50 -59 166 2t228 186q111 126 164 243q24 54 24 78t-5 24t-9 -2q-42 -23 -104 -23t-114 47t-52 124t53 126t136 49t132 -51t49 -153t-99 -287t-241 -305q-174 -152 -358 -152q-260 0 -258 226q-120 -214 -273 -217q-209 -4 -282 136
q-25 46 -25 124z" />
    <glyph glyph-name="x" unicode="x" horiz-adv-x="1142" 
d="M299 94q0 -47 -35 -71q84 0 196 178q32 51 60 108q-62 328 -136 463q-32 57 -74 57q-78 0 -171 -139q-12 -16 -23 -16q-12 0 -12 13t44 70q44 58 79 85q74 57 209 57t201 -44q67 -44 113 -177q62 97 109 135q89 74 175 75t131 -28t45 -91t-36 -89t-64 -27q-87 0 -120 62
q-11 23 -11 61t35 78l-15 2q-57 0 -133 -76t-108 -145q40 -207 108 -410q56 -155 116 -155q78 0 122 93q22 49 26 69t20 20q15 0 15 -16q-10 -46 -36 -100q-27 -54 -61 -87q-72 -69 -210 -69q-262 0 -326 280q-76 -138 -121 -185q-93 -95 -196 -93q-151 0 -149 124
q0 55 35 83q36 28 86 28t81 -38t31 -85z" />
    <glyph glyph-name="y" unicode="y" horiz-adv-x="1222" 
d="M52 584q-14 0 -13 18q1 8 19 32t57 74q151 196 333 195q182 0 216 -147l102 -457q150 364 204 450t88 111t91 25t91 -36t34 -98q0 -63 -42 -99t-86 -36q-97 0 -128 86q-4 6 -8 7q-23 1 -90 -149q-66 -150 -110 -254q-265 -630 -523 -801q-78 -50 -154 -50t-124 44
t-48 110q0 92 78 132q27 13 75 13t86 -38q36 -38 36 -89t-27 -82t-55 -43q88 0 213 136t170 235l-158 748q-23 104 -37 133q-14 30 -45 30q-32 0 -72 -25t-87 -79q-46 -54 -59 -75t-27 -21z" />
    <glyph glyph-name="z" unicode="z" horiz-adv-x="1034" 
d="M143.5 565.5q-8.5 -0.5 -8.5 6.5t7 22q19 41 61 171.5t51 168.5q132 -26 702 -62q51 82 80 82t29 -13t-24.5 -47t-77.5 -71q-76 -92 -175.5 -157.5t-198.5 -124.5t-189.5 -117.5t-161.5 -130.5q211 37 322 37q251 0 370 -90q36 -29 50.5 6t17.5 51t6 29q-35 -23 -73 -23
t-71 25.5t-33 73t27 81t111 33.5t84 -129q0 -150 -110.5 -274.5t-303.5 -124.5q-152 0 -277 41q-61 23 -110 41t-115 18q-26 -96 -72 -96q-30 0 -30 35q0 61 79.5 181t214 212t239.5 154t196.5 118t138.5 109q-180 -125 -537 -125q-102 0 -147 10q-12 -23 -24.5 -45.5
t-25.5 -48.5t-21.5 -26.5z" />
    <glyph glyph-name="braceleft" unicode="{" horiz-adv-x="681" 
d="M506 580q0 -52 -12 -105l-91 -391q-12 -59 -12 -111q0 -53 26 -83q25 -30 61 -30t51 -1q15 -2 16 -15q0 -14 -26 -17t-81 -3q-181 0 -245 146q-23 50 -23 120t18 139l97 371q4 10 4 18v17q0 70 -92 94q69 20 107 54t58 108l87 315q34 137 157 213t273 76q57 0 83 -2
t25 -14q1 -13 -21 -15t-74 -2q-115 0 -192 -250l-73 -245q-32 -111 -89 -160q-57 -48 -180 -78q148 -50 148 -149z" />
    <glyph glyph-name="bar" unicode="|" horiz-adv-x="397" 
d="M467 1432h111l-394 -1463h-108z" />
    <glyph glyph-name="braceright" unicode="}" horiz-adv-x="681" 
d="M463 862q0 52 12 105l60 268q12 57 12 110t-26 83q-25 30 -61 30t-51 2t-16 15q0 14 26 17t81 3q182 0 245 -147q23 -51 23 -120t-18 -138l-66 -248q-4 -10 -4 -18v-17q0 -72 92 -94q-70 -20 -107 -54t-59 -108l-117 -438q-34 -137 -157 -213t-273 -76q-57 0 -83 2
t-25 14q-1 12 21 14t74 3q52 0 102 57t90 192l104 369q39 152 163 203q44 18 105 35q-147 50 -147 149z" />
    <glyph glyph-name="asciitilde" unicode="~" horiz-adv-x="995" 
d="M428 889q86 1 188 -47q42 -20 78 -36t82 -15q71 0 86 63q10 33 35 33q18 0 18 -25q0 -63 -63 -116q-63 -54 -153 -55q-89 -1 -159 13t-158 70q-30 18 -68 18t-68 -22t-41 -56t-31 -34t-20 22q0 60 57 114q76 73 217 73z" />
    <glyph glyph-name="exclamdown" unicode="&#xa1;" horiz-adv-x="538" 
d="M136 -254q-36 -29 -89 -29q-53 1 -81 21q-58 42 -58 127q0 86 47 186t104 209q113 214 177 424l65 -14q-52 -234 -70 -590q-14 -269 -95 -334zM162 958q0 121 101 167q35 15 97 15t101 -44q39 -46 39 -90t-12 -74q-38 -106 -186 -108q-62 0 -102 44q-38 46 -38 90z" />
    <glyph glyph-name="cent" unicode="&#xa2;" horiz-adv-x="864" 
d="M336 333q0 -46 23.5 -86t76.5 -46l199 745q-66 -8 -122 -61.5t-91 -163.5q-86 -269 -86 -388zM819 434q12 0 12 -17t-48 -77.5t-118 -113t-194 -56.5l-41 -158h-45l43 156q-142 8 -217.5 96t-75.5 219q0 181 137.5 333t370.5 159l35 131h43l-35 -131q129 -7 168 -60
t39 -90t-23.5 -65.5t-65.5 -28.5t-62.5 24.5t-20.5 53.5t16.5 51.5t38.5 28.5t23 16q0 12 -38 26.5t-83 14.5l-199 -745q111 8 194 71.5t126 147.5q8 14 20 14z" />
    <glyph glyph-name="sterling" unicode="&#xa3;" horiz-adv-x="1144" 
d="M236 266q-61 0 -101.5 -45t-40.5 -92q0 -100 110 -100t193 112q-72 125 -161 125zM295 950q0 186 137.5 319.5t466.5 133.5q200 0 279 -65t79 -148q0 -174 -139 -174q-47 0 -86 30t-39 92t38 87.5t74 25.5t83 -28q0 59 -56 94t-118 35q-118 0 -199 -61.5t-119 -211.5
l-86 -342h160l-10 -37h-160l-80 -301q29 -10 122 -72.5t169 -62.5q75 0 114.5 7.5t79 35t109.5 152.5q8 18 20 18t12 -12t-18 -46t-57 -112t-130 -204t-236 -126q-98 0 -165 28t-114 95q-16 -16 -60.5 -63t-166.5 -47q-150 0 -150 129q0 111 116.5 212t244.5 101q25 0 47 -6
l-107 274h-119l11 37h98q-45 132 -45 213z" />
    <glyph glyph-name="yen" unicode="&#xa5;" horiz-adv-x="1374" 
d="M1401 1290q0 26 -15.5 39.5t-72.5 13.5l8 33h326l-9 -33q-72 0 -122 -28.5t-99 -95.5l-422 -566l-12 -45h197l-9 -33h-198l-21 -83h197l-10 -35h-199l-113 -424h111l-8 -33h-551l8 33h111l112 424h-198l10 35h199l22 83h-199l11 33h196l-200 735h-109l8 33h568l-9 -33
h-110l159 -661l404 537q39 45 39 71z" />
    <glyph glyph-name="brokenbar" unicode="&#xa6;" horiz-adv-x="303" 
d="M94 772v608h111v-608h-111zM205 553v-553h-111v553h111z" />
    <glyph glyph-name="section" unicode="&#xa7;" horiz-adv-x="970" 
d="M352 666q0 -68 75 -110t216 -83q90 35 140 77q51 42 51 110t-85 121q-85 52 -198 63q-199 -56 -199 -178zM397 -147q-129 0 -205 58t-75 140q0 49 21 82q22 33 67 33q66 0 65 -72q0 -30 -24 -52t-52 -22t-30 -2t-2 -12t14 -32t44 -41q73 -46 195 -47q121 0 191 54t70 137
t-49 131t-171 82t-168 100t-46 170q0 106 72 184t178 116q-76 27 -111 87t-35 129q0 145 107 247t307 100q105 0 178 -42q74 -42 74 -117q0 -51 -23 -76t-55 -25q-70 0 -70 68q0 29 20 55t62 29q6 0 6 4t-18 24t-73 34q-56 15 -109 16q-135 1 -203 -51t-68 -142
q0 -59 45 -91t133 -48q152 -27 213 -97t62 -176q0 -239 -248 -331q135 -57 134 -229q-1 -173 -106 -274t-317 -101z" />
    <glyph glyph-name="dieresis" unicode="&#xa8;" horiz-adv-x="897" 
d="M827 1225q0 -53 -40.5 -101.5t-116.5 -48.5t-109 39t-33 92t41 102.5t116 49.5t108.5 -40t33.5 -93zM403 1225q0 -53 -40.5 -101.5t-116.5 -48.5t-109 39t-33 92t41 102.5t116 49.5t108.5 -40t33.5 -93z" />
    <glyph glyph-name="copyright" unicode="&#xa9;" horiz-adv-x="1267" 
d="M774.5 262q104.5 0 202.5 40t178 107.5t135.5 158.5t73.5 195.5t-5.5 196t-79.5 159t-140 107.5t-188.5 40t-203 -40t-178.5 -107.5t-135 -159t-73.5 -196t5 -195.5t80 -158.5t140.5 -107.5t188.5 -40zM760 195q-117 0 -213 45t-158.5 121.5t-89.5 180t-6.5 220.5t83 220
t154 180t203 122t228 45t213 -45t159 -122t89 -180t6 -220t-84 -220.5t-153.5 -180t-201.5 -121.5t-228.5 -45zM626 595.5q-59 85.5 -40 198.5q19 112 107.5 196.5t224.5 84.5q82 0 123.5 -20.5t70.5 -40.5l-25 -68q-27 23 -61 42.5t-100 19.5q-114 0 -181.5 -66.5
t-82.5 -151.5t30 -150t155 -65q111 0 189 78l-2 -75q-92 -68 -221 -68q-128 0 -187 85.5z" />
    <glyph glyph-name="ordfeminine" unicode="&#xaa;" horiz-adv-x="935" 
d="M348 798q0 -36 20.5 -53.5t47.5 -17.5q49 0 100 44.5t64 80.5l67 240q4 12 4 15v7q0 29 -32 70t-79 41q-84 0 -120 -129l-62 -224q-10 -38 -10 -74zM770 808v-17q0 -41 29 -41q23 0 54.5 28.5t61.5 93.5q2 6 9 7q10 0 10 -9v-6q-73 -168 -207 -168q-78 0 -109.5 35
t-37.5 70q-10 -12 -24.5 -29.5t-37 -33t-51.5 -27t-87 -11.5t-118.5 65.5t-60.5 152.5q0 150 96 241.5t212 91.5t155 -94l24 84h193l-107 -414q-4 -10 -4 -19zM193 602h628l-6 -53h-631z" />
    <glyph glyph-name="guillemotleft" unicode="&#xab;" horiz-adv-x="870" 
d="M803 870h37l-336 -319l164 -320h-35l-260 320zM481 870h37l-336 -319l164 -320h-35l-260 320z" />
    <glyph glyph-name="logicalnot" unicode="&#xac;" horiz-adv-x="790" 
d="M362.5 346q34.5 0 52 31t28.5 78t26.5 106.5t-33.5 59.5q-37 0 -55.5 -41.5t-34.5 -107.5t-17 -96t33.5 -30zM270 -4q41 0 58.5 36t40.5 128q27 92 25.5 129t-37.5 37t-56 -39t-44 -130t-26 -126t39 -35zM444 1374q-8 0 -8 4t19 13q55 14 112.5 51t104.5 65h78l-160 -604
h47l-2 -14h-238l2 14h52l139 524q-55 -37 -133 -51q-5 -2 -13 -2zM392 338q-9 0 -9 -2t9 -2t35 -9.5t68.5 -43.5t21.5 -115t-92 -132.5t-158 -51.5t-131 52t-28 114q26 98 100 142t122 44q10 0 10 2t-11 3q-50 5 -91 34t-29 98q12 70 74.5 116t149.5 46t128 -51.5t28 -100.5
t-41 -74.5t-59.5 -40t-59.5 -21.5t-37 -7zM166 782h612l-8 -39h-612z" />
    <glyph glyph-name="registered" unicode="&#xae;" horiz-adv-x="954" 
d="M967 1063q0 -80 -33 -159t-90 -138q-125 -129 -292 -129q-168 0 -260 90q-93 90 -91 229q0 194 129 314q129 121 290 121t257 -89q90 -88 90 -239zM246 970q0 -201 173 -268q54 -20 128 -20q75 0 145 32t121 85q111 115 111 274q0 119 -80 195t-222 77t-254 -104
q-54 -51 -88 -123t-34 -148zM627 1036q49 0 69 30t21 61q0 67 -62 67h-135l-28 -158h135zM750 1129q0 -46 -31 -86t-96 -39h-62l139 -193h-47l-135 193h-33l-32 -193h-35l71 416h170q39 0 65 -26t26 -72z" />
    <glyph glyph-name="macron" unicode="&#xaf;" horiz-adv-x="925" 
d="M180 1202h598l-8 -53h-596z" />
    <glyph glyph-name="degree" unicode="&#xb0;" horiz-adv-x="516" 
d="M215 1225q0 -47 34 -81t81 -34t81 34t33 81q0 47 -33 81q-34 34 -81 34t-81 -34t-34 -81zM483 1225q0 -63 -45 -109t-108 -45q-63 0 -109 45q-45 44 -45 108t45 109t109 45t108 -45q45 -45 45 -108z" />
    <glyph glyph-name="plusminus" unicode="&#xb1;" horiz-adv-x="749" 
d="M598 418l-37 -92h-475l37 92h475zM406 848l73 274h111l-74 -274h264l-28 -111h-265l-75 -274h-111l76 274h-264l28 111h265z" />
    <glyph glyph-name="twosuperior" unicode="&#xb2;" 
d="M502 1362q0 -55 -24.5 -76.5t-55.5 -21.5t-55.5 18t-24.5 52q0 65 65.5 113t148.5 48t134 -39.5t51 -103.5q0 -201 -233 -295q-37 -18 -82 -35.5t-80 -46.5h217q65 1 103 71q10 18 14 17q4 0 4 -7t-6 -20l-88 -168h-352l8 25q17 67 116.5 136t135.5 99q112 93 112 238
q0 109 -71 109q-45 0 -79 -19.5t-48 -38.5q90 0 90 -55z" />
    <glyph glyph-name="threesuperior" unicode="&#xb3;" 
d="M395 1366q0 41 50 80q49 39 141 39t130 -37t38 -94q0 -56 -48 -104t-139 -58q47 -10 83 -43t36 -98q0 -121 -131 -180q-53 -23 -132 -23t-116 33t-37 72t20 67t55 27q73 0 75 -68q0 -35 -33 -55t-65 -6h-3q-4 0 -4 -8t23 -27t71 -19q47 0 73 27q47 50 60 117t13 96
q0 82 -70 82h-77q-12 0 -13 6q0 10 15 10h79q70 0 104 65t34 114q-1 49 -13 67t-46 18t-60 -11t-27 -15q1 -4 15 -4t27 -18t13 -49q0 -32 -21 -51q-22 -19 -50 -20q-70 0 -70 68z" />
    <glyph glyph-name="acute" unicode="&#xb4;" horiz-adv-x="847" 
d="M528 1352h207l-391 -338l-45 22z" />
    <glyph glyph-name="mu" unicode="&#xb5;" 
d="M356 493.5q0 -55.5 -24.5 -77t-55.5 -21.5t-55 18.5t-24 52.5q0 67 66 114t148 47q83 0 134 -39.5t51 -103.5q0 -199 -234 -296q-37 -18 -81.5 -35.5t-79.5 -46.5h217q67 0 104 74q8 14 15 15q2 1 2 -7t-7 -20l-88 -168h-352l8 25q16 64 116.5 134t136.5 100t74 86.5
t38 158.5t-72 102q-45 0 -78.5 -19.5t-48.5 -37.5q90 0 90 -55.5zM436 1362q-8 0 -8 4t18 12q55 14 112.5 51t105.5 66h77l-159 -604h47l-2 -14h-238l2 14h51l140 524q-55 -37 -133 -51q-5 -2 -13 -2zM158 776h598l-6 -37h-598z" />
    <glyph glyph-name="paragraph" unicode="&#xb6;" horiz-adv-x="1421" 
d="M508 631q-168 0 -267 76t-99 239t110 282q139 148 440 148h764l-10 -33h-176l-416 -1564h-184l415 1564h-100l-418 -1564h-184l227 852h-102z" />
    <glyph glyph-name="periodcentered" unicode="&#xb7;" horiz-adv-x="714" 
d="M551 683q0 -80 -48 -131.5t-130 -51.5t-121 45t-39 89q0 81 49 132t130 51t120 -45t39 -89z" />
    <glyph glyph-name="periodcentered" unicode="&#x2219;" horiz-adv-x="714" 
d="M551 683q0 -80 -48 -131.5t-130 -51.5t-121 45t-39 89q0 81 49 132t130 51t120 -45t39 -89z" />
    <glyph glyph-name="cedilla" unicode="&#xb8;" horiz-adv-x="616" 
d="M263 -266q30 0 61 24q30 24 30 73q0 48 -43 65l45 104h47l-34 -90q23 -8 45 -32q39 -41 16 -100q-38 -98 -150 -100q-42 0 -83 26t-41 67v13q0 9 8 9t18 -18q21 -41 81 -41z" />
    <glyph glyph-name="onesuperior" unicode="&#xb9;" 
d="M399 1360q-8 0 -8 4t19 12q55 14 112.5 51t104.5 66h78l-160 -604h47l-2 -15h-238l2 15h52l139 524q-55 -37 -133 -51q-5 -2 -13 -2z" />
    <glyph glyph-name="ordmasculine" unicode="&#xba;" horiz-adv-x="931" 
d="M473 799q0 -84 70 -84q65 0 83.5 64.5t32.5 117.5t37 137.5t23 118.5q0 72 -62 72q-72 0 -94.5 -67.5t-36.5 -121.5t-33.5 -131t-19.5 -106zM315 909q0 147 95.5 242.5t218.5 95.5t187.5 -62.5t64.5 -184.5t-94 -214t-226 -92q-131 0 -188.5 66t-57.5 149zM211 602h631
l-6 -53h-631z" />
    <glyph glyph-name="guillemotright" unicode="&#xbb;" horiz-adv-x="847" 
d="M391 231l336 320l-164 319h35l260 -319l-430 -320h-37zM84 231l334 320l-162 319h35l260 -319l-432 -320h-35z" />
    <glyph glyph-name="onequarter" unicode="&#xbc;" 
d="M305 227l74 275q-131 -131 -240 -275h166zM549 621l-105 -394h84l-14 -55h-86l-41 -156h49l-4 -16h-237l4 16h49l43 156h-207l4 21q85 114 209.5 252.5t161.5 175.5h90zM399 1360q-8 0 -8 4t19 12q55 14 112.5 51t104.5 66h78l-160 -604h47l-2 -15h-238l2 15h52l139 524
q-55 -37 -133 -51q-5 -2 -13 -2zM127 776h598l-6 -37h-598z" />
    <glyph glyph-name="onehalf" unicode="&#xbd;" 
d="M356 493.5q0 -55.5 -24.5 -77t-55.5 -21.5t-55 18.5t-24 52.5q0 67 66 114t148 47q83 0 134 -39.5t51 -103.5q0 -199 -234 -296q-37 -18 -81.5 -35.5t-79.5 -46.5h217q67 0 104 74q8 14 15 15q2 1 2 -7t-7 -20l-88 -168h-352l8 25q16 64 116.5 134t136.5 100t74 86.5
t38 158.5t-72 102q-45 0 -78.5 -19.5t-48.5 -37.5q90 0 90 -55.5zM436 1362q-8 0 -8 4t18 12q55 14 112.5 51t105.5 66h77l-159 -604h47l-2 -14h-238l2 14h51l140 524q-55 -37 -133 -51q-5 -2 -13 -2zM158 776h598l-6 -37h-598z" />
    <glyph glyph-name="threequarters" unicode="&#xbe;" 
d="M289 227l73 275q-71 -71 -143 -156.5t-96 -118.5h166zM532 621l-104 -394h84l-14 -55h-86l-41 -156h49l-4 -16h-238l4 16h49l43 156h-206l4 21q96 129 215 260t155 168h90zM345 1047q75 0 75 -51.5t-25 -67t-43 -15.5t-30 5h-3q-4 0 -4 -8t22.5 -27t70.5 -19t74 27
t49.5 80.5t23.5 133.5q0 81 -70 81h-77q-12 0 -13 6q0 10 15 10h79q71 0 104.5 65t33.5 114t-12.5 67t-46.5 18t-60.5 -11t-26.5 -15q1 -4 15 -4t27.5 -17.5t13.5 -49.5t-21.5 -51.5t-50.5 -19.5q-70 0 -70 68q0 41 50.5 80t141.5 39t129 -37t38 -94t-48.5 -104.5
t-138.5 -57.5q47 -10 83 -43t36 -98q0 -121 -92 -162t-171 -41t-116 32t-37 72t20.5 67.5t54.5 27.5zM113 754h596l-7 -35h-596z" />
    <glyph glyph-name="questiondown" unicode="&#xbf;" horiz-adv-x="815" 
d="M438 931q0 123 102 168q34 15 96 15t101 -45t39 -89q0 -122 -101 -168q-35 -15 -97 -15t-101 45t-39 89zM-12 8q0 95 23 147q46 104 179 193q53 33 147 82q173 90 193 168l27 96h33l-84 -321q-31 -126 -145 -194q-141 -83 -169 -119q-49 -63 -50 -145q-1 -83 37 -118
t115 -35t138 45q-55 5 -83 45q-27 40 -27 89t35 90t101 41t101 -36t35 -85q0 -94 -83 -159q-83 -66 -224 -66q-143 0 -221 70t-78 212z" />
    <glyph glyph-name="Agrave" unicode="&#xc0;" horiz-adv-x="1382" 
d="M784 1047l-350 -586h389zM1100 1395l86 -1362h178l-10 -33h-695l9 33h184l-27 395h-409l-166 -287q-25 -41 -8 -74.5t88 -33.5l-8 -33h-310l11 33q110 0 182 106l751 1256h144zM795 1737h170l118 -307l-34 -9z" />
    <glyph glyph-name="Aacute" unicode="&#xc1;" horiz-adv-x="1382" 
d="M784 1047l-350 -586h389zM1100 1395l86 -1362h178l-10 -33h-695l9 33h184l-27 395h-409l-166 -287q-25 -41 -8 -74.5t88 -33.5l-8 -33h-310l11 33q110 0 182 106l751 1256h144zM1227 1737h186l-344 -305l-43 24z" />
    <glyph glyph-name="Acircumflex" unicode="&#xc2;" horiz-adv-x="1382" 
d="M784 1047l-350 -586h389zM1100 1395l86 -1362h178l-10 -33h-695l9 33h184l-27 395h-409l-166 -287q-25 -41 -8 -74.5t88 -33.5l-8 -33h-310l11 33q110 0 182 106l751 1256h144zM1288 1456l-18 -16l-197 137l-256 -139l-18 18l248 244h77z" />
    <glyph glyph-name="Atilde" unicode="&#xc3;" horiz-adv-x="1382" 
d="M784 1047l-350 -586h389zM1100 1395l86 -1362h178l-10 -33h-695l9 33h184l-27 395h-409l-166 -287q-25 -41 -8 -74.5t88 -33.5l-8 -33h-310l11 33q110 0 182 106l751 1256h144zM1243 1626q64 0 74 57q9 29 27 29t18 -22q0 -52 -53 -103t-131 -51q-77 0 -119.5 9t-83.5 29
t-66.5 37t-57.5 17t-58.5 -20.5t-34.5 -51.5t-27 -30q-16 0 -16 19q0 51 54.5 110t149.5 59q94 0 195 -47q29 -14 59.5 -27.5t69.5 -13.5z" />
    <glyph glyph-name="Adieresis" unicode="&#xc4;" horiz-adv-x="1382" 
d="M784 1047l-350 -586h389zM1100 1395l86 -1362h178l-10 -33h-695l9 33h184l-27 395h-409l-166 -287q-25 -41 -8 -74.5t88 -33.5l-8 -33h-310l11 33q110 0 182 106l751 1256h144zM1370 1631q0 -48 -37 -91t-104 -43t-97 35t-30 83t36 92t104 44t98 -36t30 -84zM989 1631
q0 -48 -37 -91t-105 -43t-97 35t-29 83t36 92t103 44t98 -36t31 -84z" />
    <glyph glyph-name="Aring" unicode="&#xc5;" horiz-adv-x="1382" 
d="M784 1047l-350 -586h389zM1100 1395l86 -1362h178l-10 -33h-695l9 33h184l-27 395h-409l-166 -287q-25 -41 -8 -74.5t88 -33.5l-8 -33h-310l11 33q110 0 182 106l751 1256h144zM946 1591q0 -43 30 -72.5t73 -29.5t72.5 29.5t29.5 72.5t-29.5 73t-72.5 30t-73 -30t-30 -73
zM1188 1591.5q0 -57.5 -41 -98.5t-98.5 -41t-98.5 41t-41 98.5t41 98.5t98.5 41t98.5 -41t41 -98.5z" />
    <glyph glyph-name="AE" unicode="&#xc6;" horiz-adv-x="2136" 
d="M1720 709h-147l-180 -676h252q135 0 233 98t147 242q14 41 35 41q14 0 15 -23q0 -4 -9 -37l-75 -288q-18 -66 -74 -66h-975l10 31h119l141 553h-493l-445 -443q-11 -11 -20 -35q-10 -24 -6 -38q12 -41 117 -35l-9 -33h-344l11 33q40 2 88 25q47 22 67 39t39 42l1204 1204
h-114l8 33h905q51 0 51 -39q0 -15 -12 -61l-70 -258q-8 -31 -22 -31t-15 25l2 49q0 175 -114 254q-43 29 -107 28h-190l-160 -602h148q67 -1 113 57t83 134q9 18 23 18t14 -18v-4t-2 -13l-111 -444q-6 -23 -18 -22q-18 0 -18 28l2 68q0 164 -97 164zM750 616h473l174 650z
" />
    <glyph glyph-name="Ccedilla" unicode="&#xc7;" horiz-adv-x="1327" 
d="M1016 1401q195 0 321 -105l86 72q23 14 35 14t12 -15t-2 -24l-94 -352q-6 -23 -20 -22q-18 0 -19 32q0 147 -79 256t-214 109q-185 0 -267 -102.5t-137.5 -290t-86.5 -305t-68 -251.5t-37 -230q0 -95 51.5 -140t168.5 -45q203 0 346.5 174.5t189.5 251.5q12 18 26.5 18
t14.5 -18q0 -8 -2 -14l-102 -408q-6 -25 -23 -24q-12 0 -24 18l-60 106q-97 -83 -202 -112t-179 -29l-45 -88q16 -8 40 -33.5t24 -81.5t-47.5 -88t-92.5 -32t-68.5 11t-38.5 28.5t-22.5 36t-7.5 30.5t8.5 12t20.5 -17q28 -40 76 -40q47 0 70.5 27.5t23.5 71.5t-43 61l53 104
q-230 15 -347.5 161.5t-117.5 360.5q0 154 60.5 316t176 294t281.5 217t361 85z" />
    <glyph glyph-name="Egrave" unicode="&#xc8;" horiz-adv-x="1236" 
d="M799 709h-148l-180 -676h252q136 0 232 96t149 244q14 41 35 41q14 0 14 -23q0 -4 -8 -37l-76 -288q-18 -66 -74 -66h-972l8 33h110l351 1310h-113l8 33h911q51 0 52 -39q0 -13 -13 -61l-69 -258q-8 -31 -22.5 -31t-14.5 25l2 49q0 177 -79 229.5t-142 52.5h-191
l-159 -602h147q66 0 113 57.5t84 133.5q8 18 22 18t14 -18v-4t-2 -13l-110 -444q-6 -23 -19 -22q-18 0 -18 28l2 68q0 164 -96 164zM725 1737h170l119 -307l-37 -9z" />
    <glyph glyph-name="Eacute" unicode="&#xc9;" horiz-adv-x="1236" 
d="M799 709h-148l-180 -676h252q136 0 232 96t149 244q14 41 35 41q14 0 14 -23q0 -4 -8 -37l-76 -288q-18 -66 -74 -66h-972l8 33h110l351 1310h-113l8 33h911q51 0 52 -39q0 -13 -13 -61l-69 -258q-8 -31 -22.5 -31t-14.5 25l2 49q0 177 -79 229.5t-142 52.5h-191
l-159 -602h147q66 0 113 57.5t84 133.5q8 18 22 18t14 -18v-4t-2 -13l-110 -444q-6 -23 -19 -22q-18 0 -18 28l2 68q0 164 -96 164zM1096 1737h188l-358 -324l-43 25z" />
    <glyph glyph-name="Ecircumflex" unicode="&#xca;" horiz-adv-x="1236" 
d="M799 709h-148l-180 -676h252q136 0 232 96t149 244q14 41 35 41q14 0 14 -23q0 -4 -8 -37l-76 -288q-18 -66 -74 -66h-972l8 33h110l351 1310h-113l8 33h911q51 0 52 -39q0 -13 -13 -61l-69 -258q-8 -31 -22.5 -31t-14.5 25l2 49q0 177 -79 229.5t-142 52.5h-191
l-159 -602h147q66 0 113 57.5t84 133.5q8 18 22 18t14 -18v-4t-2 -13l-110 -444q-6 -23 -19 -22q-18 0 -18 28l2 68q0 164 -96 164zM1188 1456l-19 -16l-198 137l-256 -139l-17 18l246 244h80z" />
    <glyph glyph-name="Edieresis" unicode="&#xcb;" horiz-adv-x="1236" 
d="M799 709h-148l-180 -676h252q136 0 232 96t149 244q14 41 35 41q14 0 14 -23q0 -4 -8 -37l-76 -288q-18 -66 -74 -66h-972l8 33h110l351 1310h-113l8 33h911q51 0 52 -39q0 -13 -13 -61l-69 -258q-8 -31 -22.5 -31t-14.5 25l2 49q0 177 -79 229.5t-142 52.5h-191
l-159 -602h147q66 0 113 57.5t84 133.5q8 18 22 18t14 -18v-4t-2 -13l-110 -444q-6 -23 -19 -22q-18 0 -18 28l2 68q0 164 -96 164zM1260 1631q0 -48 -37 -91t-105 -43t-97.5 35t-29.5 83t36 92t105 44t98.5 -36t29.5 -84zM879 1631q0 -48 -37.5 -91t-105.5 -43t-97 35
t-29 83t36 92t104 44t98.5 -36t30.5 -84z" />
    <glyph glyph-name="Igrave" unicode="&#xcc;" horiz-adv-x="827" 
d="M969 1343h-111l-350 -1310h119l-9 -33h-559l9 33h110l350 1310h-110l10 33h549zM420 1737h170l119 -307l-35 -9z" />
    <glyph glyph-name="Iacute" unicode="&#xcd;" horiz-adv-x="827" 
d="M969 1343h-111l-350 -1310h119l-9 -33h-559l9 33h110l350 1310h-110l10 33h549zM909 1737h187l-359 -324l-41 25z" />
    <glyph glyph-name="Icircumflex" unicode="&#xce;" horiz-adv-x="827" 
d="M969 1343h-111l-350 -1310h119l-9 -33h-559l9 33h110l350 1310h-110l10 33h549zM963 1485l-19 -17l-196 109l-256 -111l-19 19l248 215h78z" />
    <glyph glyph-name="Idieresis" unicode="&#xcf;" horiz-adv-x="827" 
d="M969 1343h-111l-350 -1310h119l-9 -33h-559l9 33h110l350 1310h-110l10 33h549zM1075 1631q0 -48 -37 -91t-104 -43t-97 35t-30 83t36.5 92t104.5 44t97.5 -36t29.5 -84zM694 1631q0 -48 -37 -91t-105 -43t-97 35t-29 83t36 92t103 44t98 -36t31 -84z" />
    <glyph glyph-name="Eth" unicode="&#xd0;" horiz-adv-x="1298" 
d="M971 1376q193 0 300 -152t105 -376q0 -145 -47 -296q-100 -323 -374 -474q-140 -78 -324 -78h-596l14 33h109l164 622h-146l29 109h145l154 579h-111l10 33h568zM594 33q249 0 377 452q27 98 63 227q80 285 80 410q0 167 -109 209q-32 12 -67 12h-102l-156 -579h180
l-29 -109h-180l-166 -622h109z" />
    <glyph glyph-name="Ntilde" unicode="&#xd1;" horiz-adv-x="1241" 
d="M1339 1274q0 70 -88 69l11 33h256l-11 -33q-108 0 -139 -106l-338 -1253h-69l-488 1140l-262 -985q-4 -19 -4 -41t20.5 -43.5t65.5 -21.5l-10 -33h-256l10 33q108 0 139 106l281 1047l-86 157l8 33h399l365 -854l192 715q4 21 4 37zM1206 1626q64 0 74 57q10 29 28 29
t17 -22q0 -52 -53 -103t-131 -51q-77 0 -119.5 9t-83.5 29t-66.5 37t-57.5 17t-58.5 -20.5t-34.5 -51.5t-27 -30q-16 0 -16 19q0 52 55.5 110.5t148.5 58.5q94 0 195 -47q29 -14 59.5 -27.5t69.5 -13.5z" />
    <glyph glyph-name="Ograve" unicode="&#xd2;" horiz-adv-x="1435" 
d="M1190 1173q0 82 -44 135.5t-142 53.5t-158 -37t-113 -112.5t-115 -297.5l-133 -493q-39 -153 -39 -229t43 -132.5t149 -56.5t167 39t102 100.5t65.5 137t45.5 149.5l133 500q39 161 39 243zM137 478q0 342 146.5 524t298.5 289.5t411 107.5t387.5 -143.5t128.5 -368.5
q0 -154 -56 -317.5t-165.5 -297t-270.5 -219.5t-370 -86q-251 0 -380.5 144t-129.5 367zM760 1737h170l119 -307l-35 -9z" />
    <glyph glyph-name="Oacute" unicode="&#xd3;" horiz-adv-x="1435" 
d="M1190 1173q0 82 -44 135.5t-142 53.5t-158 -37t-113 -112.5t-115 -297.5l-133 -493q-39 -153 -39 -229t43 -132.5t149 -56.5t167 39t102 100.5t65.5 137t45.5 149.5l133 500q39 161 39 243zM137 478q0 342 146.5 524t298.5 289.5t411 107.5t387.5 -143.5t128.5 -368.5
q0 -154 -56 -317.5t-165.5 -297t-270.5 -219.5t-370 -86q-251 0 -380.5 144t-129.5 367zM1198 1737h186l-358 -324l-41 25z" />
    <glyph glyph-name="Ocircumflex" unicode="&#xd4;" horiz-adv-x="1435" 
d="M1190 1173q0 82 -44 135.5t-142 53.5t-158 -37t-113 -112.5t-115 -297.5l-133 -493q-39 -153 -39 -229t43 -132.5t149 -56.5t167 39t102 100.5t65.5 137t45.5 149.5l133 500q39 161 39 243zM137 478q0 342 146.5 524t298.5 289.5t411 107.5t387.5 -143.5t128.5 -368.5
q0 -154 -56 -317.5t-165.5 -297t-270.5 -219.5t-370 -86q-251 0 -380.5 144t-129.5 367zM1288 1485l-18 -17l-197 109l-256 -111l-18 19l248 215h77z" />
    <glyph glyph-name="Otilde" unicode="&#xd5;" horiz-adv-x="1435" 
d="M1190 1173q0 82 -44 135.5t-142 53.5t-158 -37t-113 -112.5t-115 -297.5l-133 -493q-39 -153 -39 -229t43 -132.5t149 -56.5t167 39t102 100.5t65.5 137t45.5 149.5l133 500q39 161 39 243zM137 478q0 342 146.5 524t298.5 289.5t411 107.5t387.5 -143.5t128.5 -368.5
q0 -154 -56 -317.5t-165.5 -297t-270.5 -219.5t-370 -86q-251 0 -380.5 144t-129.5 367zM1298 1626q63 0 74 57q10 29 28 29t17 -22q0 -53 -53.5 -103.5t-129.5 -50.5q-77 0 -120 9t-84 29t-66.5 37t-57.5 17t-58.5 -20.5t-34.5 -51.5t-27 -30q-16 0 -16 19q0 50 55 109.5
t149 59.5t195 -47q29 -14 60 -27.5t69 -13.5z" />
    <glyph glyph-name="Odieresis" unicode="&#xd6;" horiz-adv-x="1435" 
d="M1190 1173q0 82 -44 135.5t-142 53.5t-158 -37t-113 -112.5t-115 -297.5l-133 -493q-39 -153 -39 -229t43 -132.5t149 -56.5t167 39t102 100.5t65.5 137t45.5 149.5l133 500q39 161 39 243zM137 478q0 342 146.5 524t298.5 289.5t411 107.5t387.5 -143.5t128.5 -368.5
q0 -154 -56 -317.5t-165.5 -297t-270.5 -219.5t-370 -86q-251 0 -380.5 144t-129.5 367zM1378 1631q0 -48 -36 -91t-104 -43t-98 35t-30 83t36 92t104 44t98 -36t30 -84zM997 1631q0 -48 -36.5 -91t-104.5 -43t-97.5 35t-29.5 83t36 92t103 44t98 -36t31 -84z" />
    <glyph glyph-name="multiply" unicode="&#xd7;" horiz-adv-x="1155" 
d="M78 920l98 98l402 -404l403 404l98 -98l-403 -402l403 -403l-98 -99l-403 404l-402 -404l-98 99l401 403z" />
    <glyph glyph-name="Oslash" unicode="&#xd8;" horiz-adv-x="1435" 
d="M1161 1286q-47 76 -170 76q-151 0 -248 -135q-43 -61 -71 -143t-54 -169l-133 -493q-38 -148 -38 -201q-1 -53 6 -90zM1151 930q39 161 39 222t-10 89l-707 -1159q51 -78 180 -78q161 0 254 139q41 61 66 137t45 150zM1509 887q0 -154 -56 -318q-118 -345 -436 -516
q-161 -86 -370 -86q-129 0 -221 39l-98 -162l-37 23l94 156q-129 63 -188 185q-99 204 -35 482q51 222 199 407t378 262q119 40 248 40t223 -35l80 131l33 -20l-76 -125q135 -61 199 -185t63 -278z" />
    <glyph glyph-name="Ugrave" unicode="&#xd9;" horiz-adv-x="1282" 
d="M1348 1274q0 70 -88 69l10 33h256l-10 -33q-105 0 -138 -106l-219 -817q-59 -223 -201 -331.5t-338 -108.5t-310.5 82.5t-114.5 234.5q0 80 22 166l234 880h-109l8 33h551l-10 -33h-109l-239 -894q-35 -128 -35 -214q0 -85 57.5 -132.5t157.5 -47.5q137 0 244.5 103.5
t154.5 279.5l221 801q5 17 5 35zM741 1737h170l119 -307l-35 -9z" />
    <glyph glyph-name="Uacute" unicode="&#xda;" horiz-adv-x="1282" 
d="M1348 1274q0 70 -88 69l10 33h256l-10 -33q-105 0 -138 -106l-219 -817q-59 -223 -201 -331.5t-338 -108.5t-310.5 82.5t-114.5 234.5q0 80 22 166l234 880h-109l8 33h551l-10 -33h-109l-239 -894q-35 -128 -35 -214q0 -85 57.5 -132.5t157.5 -47.5q137 0 244.5 103.5
t154.5 279.5l221 801q5 17 5 35zM1149 1737h188l-360 -324l-41 25z" />
    <glyph glyph-name="Ucircumflex" unicode="&#xdb;" horiz-adv-x="1282" 
d="M1348 1274q0 70 -88 69l10 33h256l-10 -33q-105 0 -138 -106l-219 -817q-59 -223 -201 -331.5t-338 -108.5t-310.5 82.5t-114.5 234.5q0 80 22 166l234 880h-109l8 33h551l-10 -33h-109l-239 -894q-35 -128 -35 -214q0 -85 57.5 -132.5t157.5 -47.5q137 0 244.5 103.5
t154.5 279.5l221 801q5 17 5 35zM1245 1485l-18 -17l-199 109l-256 -111l-16 19l245 215h80z" />
    <glyph glyph-name="Udieresis" unicode="&#xdc;" horiz-adv-x="1282" 
d="M1348 1274q0 70 -88 69l10 33h256l-10 -33q-105 0 -138 -106l-219 -817q-59 -223 -201 -331.5t-338 -108.5t-310.5 82.5t-114.5 234.5q0 80 22 166l234 880h-109l8 33h551l-10 -33h-109l-239 -894q-35 -128 -35 -214q0 -85 57.5 -132.5t157.5 -47.5q137 0 244.5 103.5
t154.5 279.5l221 801q5 17 5 35zM1329 1631q0 -48 -37 -91t-104 -43t-97 35t-30 83t36.5 92t104.5 44t97.5 -36t29.5 -84zM948 1631q0 -48 -37 -91t-105 -43t-97 35t-29 83t36 92t103 44t98 -36t31 -84z" />
    <glyph glyph-name="Yacute" unicode="&#xdd;" horiz-adv-x="1374" 
d="M1239 1737h188l-358 -324l-43 25zM1395 1296q0 49 -80 50l8 32h326l-9 -32q-123 0 -223 -125l-422 -562l-168 -626h111l-8 -33h-551l8 33h111l153 573l-200 737h-109l8 33h568l-9 -33h-110l159 -659l408 543q29 41 29 69z" />
    <glyph glyph-name="Thorn" unicode="&#xde;" horiz-adv-x="1198" 
d="M901 1110q154 0 253 -82.5t99 -255.5t-133 -290t-399 -117h-201l-88 -332h111l-11 -35h-548l10 35h106l351 1310h-109l8 33h549l-10 -33h-107l-61 -233h180zM666 397q74 0 129 54.5t91 128t54 152.5t18 128q0 119 -49 168t-127 49h-71l-181 -680h136z" />
    <glyph glyph-name="germandbls" unicode="&#xdf;" horiz-adv-x="1198" 
d="M-146 -451q-64 0 -117 29q-52 29 -52 85t28 88q29 32 82 32t77 -36t24 -76t-22 -57t-38 -26q6 -2 19 -2q148 0 234 327q64 236 80 394q15 158 25 264q22 264 65 385q151 430 615 428q112 0 187 -70q74 -70 74 -177q0 -157 -144 -284q-43 -39 -75 -63t-33 -38
q0 -23 41 -38q84 -31 148 -118q65 -87 66 -184q3 -294 -235 -398q-82 -34 -182 -34t-150 27q-49 28 -49 87t27 87t68 28t67 -22t27 -77q0 -55 -43 -77q-12 -4 -13 -10q0 -5 48 -5q49 0 101 12q110 26 162 91q73 93 -61 245q-82 93 -170 132q-39 16 -53 36t-14 55q0 33 26 65
t75 72q48 40 95 77q187 147 187 354q0 86 -47 133t-133 47q-142 0 -230 -109t-123 -376q-16 -123 -30 -253t-27 -261q-36 -336 -148 -506q-68 -102 -148 -165q-154 -118 -311 -118z" />
    <glyph glyph-name="agrave" unicode="&#xe0;" horiz-adv-x="1329" 
d="M371 145q0 -57 33.5 -87.5t79.5 -30.5q78 0 169.5 76.5t104.5 129.5l110 400q9 31 9 43t-11.5 43t-51.5 83t-120 52t-127.5 -59.5t-74.5 -153.5l-103 -373q-18 -66 -18 -123zM1073 133q0 -70 49 -70q37 0 89.5 49.5t103.5 155.5q6 12 19 12q14 0 14 -14q0 -15 -74.5 -153
t-269.5 -138q-169 0 -205.5 73t-40.5 102q-115 -166 -271 -166t-259 104.5t-103 284.5q0 227 162.5 375.5t369.5 148.5q70 0 136.5 -30.5t103.5 -123.5l39 138h324l-179 -688q-8 -31 -8 -60zM410 1352h170l118 -308l-34 -10z" />
    <glyph glyph-name="aacute" unicode="&#xe1;" horiz-adv-x="1329" 
d="M371 145q0 -57 33.5 -87.5t79.5 -30.5q78 0 169.5 76.5t104.5 129.5l110 400q9 31 9 43t-11.5 43t-51.5 83t-120 52t-127.5 -59.5t-74.5 -153.5l-103 -373q-18 -66 -18 -123zM1073 133q0 -70 49 -70q37 0 89.5 49.5t103.5 155.5q6 12 19 12q14 0 14 -14q0 -15 -74.5 -153
t-269.5 -138q-169 0 -205.5 73t-40.5 102q-115 -166 -271 -166t-259 104.5t-103 284.5q0 227 162.5 375.5t369.5 148.5q70 0 136.5 -30.5t103.5 -123.5l39 138h324l-179 -688q-8 -31 -8 -60zM858 1352h207l-391 -338l-43 22z" />
    <glyph glyph-name="acircumflex" unicode="&#xe2;" horiz-adv-x="1329" 
d="M371 145q0 -57 33.5 -87.5t79.5 -30.5q78 0 169.5 76.5t104.5 129.5l110 400q9 31 9 43t-11.5 43t-51.5 83t-120 52t-127.5 -59.5t-74.5 -153.5l-103 -373q-18 -66 -18 -123zM1073 133q0 -70 49 -70q37 0 89.5 49.5t103.5 155.5q6 12 19 12q14 0 14 -14q0 -15 -74.5 -153
t-269.5 -138q-169 0 -205.5 73t-40.5 102q-115 -166 -271 -166t-259 104.5t-103 284.5q0 227 162.5 375.5t369.5 148.5q70 0 136.5 -30.5t103.5 -123.5l39 138h324l-179 -688q-8 -31 -8 -60zM985 1061l-20 -14l-222 151l-282 -156l-21 19l275 274h88z" />
    <glyph glyph-name="atilde" unicode="&#xe3;" horiz-adv-x="1329" 
d="M371 145q0 -57 33.5 -87.5t79.5 -30.5q78 0 169.5 76.5t104.5 129.5l110 400q9 31 9 43t-11.5 43t-51.5 83t-120 52t-127.5 -59.5t-74.5 -153.5l-103 -373q-18 -66 -18 -123zM1073 133q0 -70 49 -70q37 0 89.5 49.5t103.5 155.5q6 12 19 12q14 0 14 -14q0 -15 -74.5 -153
t-269.5 -138q-169 0 -205.5 73t-40.5 102q-115 -166 -271 -166t-259 104.5t-103 284.5q0 227 162.5 375.5t369.5 148.5q70 0 136.5 -30.5t103.5 -123.5l39 138h324l-179 -688q-8 -31 -8 -60zM938 1200q64 0 74 57q10 29 27 29t17 -22q1 -51 -52 -102.5t-131 -51.5
q-77 0 -119.5 9t-83.5 29t-66.5 37t-57.5 17t-58.5 -20.5t-34.5 -51.5t-27 -30q-16 0 -16 19q0 51 54.5 110t149.5 59q94 0 195 -47q29 -14 59.5 -27.5t69.5 -13.5z" />
    <glyph glyph-name="adieresis" unicode="&#xe4;" horiz-adv-x="1329" 
d="M371 145q0 -57 33.5 -87.5t79.5 -30.5q78 0 169.5 76.5t104.5 129.5l110 400q9 31 9 43t-11.5 43t-51.5 83t-120 52t-127.5 -59.5t-74.5 -153.5l-103 -373q-18 -66 -18 -123zM1073 133q0 -70 49 -70q37 0 89.5 49.5t103.5 155.5q6 12 19 12q14 0 14 -14q0 -15 -74.5 -153
t-269.5 -138q-169 0 -205.5 73t-40.5 102q-115 -166 -271 -166t-259 104.5t-103 284.5q0 227 162.5 375.5t369.5 148.5q70 0 136.5 -30.5t103.5 -123.5l39 138h324l-179 -688q-8 -31 -8 -60zM1106 1225q0 -53 -41 -101.5t-117 -48.5t-108.5 39t-32.5 92t41 102.5t116 49.5
t108.5 -40t33.5 -93zM682 1225q0 -53 -41 -101.5t-117 -48.5t-108.5 39t-32.5 92t41 102.5t116 49.5t108.5 -40t33.5 -93z" />
    <glyph glyph-name="aring" unicode="&#xe5;" horiz-adv-x="1329" 
d="M371 145q0 -57 33.5 -87.5t79.5 -30.5q78 0 169.5 76.5t104.5 129.5l110 400q9 31 9 43t-11.5 43t-51.5 83t-120 52t-127.5 -59.5t-74.5 -153.5l-103 -373q-18 -66 -18 -123zM1073 133q0 -70 49 -70q37 0 89.5 49.5t103.5 155.5q6 12 19 12q14 0 14 -14q0 -15 -74.5 -153
t-269.5 -138q-169 0 -205.5 73t-40.5 102q-115 -166 -271 -166t-259 104.5t-103 284.5q0 227 162.5 375.5t369.5 148.5q70 0 136.5 -30.5t103.5 -123.5l39 138h324l-179 -688q-8 -31 -8 -60zM606 1186q0 -47 34 -81t81 -34t81 34t34 81t-34 80.5t-81 33.5t-81 -33.5
t-34 -80.5zM874 1185.5q0 -63.5 -45 -108.5t-108.5 -45t-108.5 45t-45 108.5t45 108.5t108.5 45t108.5 -45t45 -108.5z" />
    <glyph glyph-name="ae" unicode="&#xe6;" horiz-adv-x="1538" 
d="M1042 16q165 0 329 157q49 45 73 81t36 36t13 -12q0 -13 -14 -34q-78 -115 -190 -192t-241 -77t-235 12q-151 17 -221 103q-51 -51 -91 -72q-81 -42 -203 -42q-122 -1 -190 64t-67 149q0 249 287 327q98 27 200 27t146 -6l28 125q15 66 15 100q0 36 -24 66t-83 30
t-102 -16t-43 -33q-1 -8 15 -14q16 -7 27 -27t11 -52t-30 -66t-82 -34q-115 0 -115 99q0 76 87 128t280 52q192 0 278 -100q72 50 131 77t150 27q165 0 257 -72q91 -72 91 -179q-1 -107 -97 -179t-297 -72q-125 0 -198 31l-43 -158q-18 -72 -19 -118q0 -136 131 -136z
M1223 866q-119 0 -169 -137q-15 -41 -26 -86l-45 -184q96 -17 107 -17q104 0 163 86t59 212t-89 126zM412 45q45 -1 94 33t67 100l89 318q-37 12 -106 12t-137 -113q-69 -113 -70 -231q-1 -119 63 -119z" />
    <glyph glyph-name="ccedilla" unicode="&#xe7;" horiz-adv-x="972" 
d="M467 -159q0 47 -43 65l33 76q-158 9 -272 111q-113 103 -111 267q0 204 158 360q177 173 458 173q185 0 253 -87q26 -32 26 -90t-41 -86t-89 -28t-87 30t-39 78t23 81q24 33 52 35t27 10q0 8 -35 16t-89 8q-105 0 -153 -45q-75 -71 -147 -373q-47 -200 -47 -261t22 -92
q43 -64 144 -64q158 0 289 134q45 46 80 109q8 14 20 15q16 0 16 -21t-51 -84q-152 -189 -358 -196l-25 -62q23 -8 45 -32t23 -54q0 -92 -85 -132q-30 -13 -72 -13t-83 25t-41 67v13q0 9 8 9t19 -18q21 -41 81 -41q30 0 60 25t31 72z" />
    <glyph glyph-name="egrave" unicode="&#xe8;" horiz-adv-x="987" 
d="M770 743q0 121 -98 121q-112 0 -148.5 -89t-48.5 -132l-55 -201q69 -12 92 -12q113 0 185.5 79t72.5 234zM360 135q0 -53 45.5 -85t100.5 -32q131 0 240.5 64.5t187.5 175.5q12 16 25 16t13 -18t-22 -50q-67 -91 -184.5 -161t-286.5 -70t-271 106t-102 263q0 96 39 194.5
t114 178.5t186 130t223 50q183 0 267.5 -72t84.5 -187t-110 -187t-303 -72q-102 0 -195 31l-33 -140q-19 -82 -19 -135zM432 1352h170l119 -308l-37 -10z" />
    <glyph glyph-name="eacute" unicode="&#xe9;" horiz-adv-x="987" 
d="M770 743q0 121 -98 121q-112 0 -148.5 -89t-48.5 -132l-55 -201q69 -12 92 -12q113 0 185.5 79t72.5 234zM360 135q0 -53 45.5 -85t100.5 -32q131 0 240.5 64.5t187.5 175.5q12 16 25 16t13 -18t-22 -50q-67 -91 -184.5 -161t-286.5 -70t-271 106t-102 263q0 96 39 194.5
t114 178.5t186 130t223 50q183 0 267.5 -72t84.5 -187t-110 -187t-303 -72q-102 0 -195 31l-33 -140q-19 -82 -19 -135zM848 1352h207l-391 -338l-46 22z" />
    <glyph glyph-name="ecircumflex" unicode="&#xea;" horiz-adv-x="987" 
d="M770 743q0 121 -98 121q-112 0 -148.5 -89t-48.5 -132l-55 -201q69 -12 92 -12q113 0 185.5 79t72.5 234zM360 135q0 -53 45.5 -85t100.5 -32q131 0 240.5 64.5t187.5 175.5q12 16 25 16t13 -18t-22 -50q-67 -91 -184.5 -161t-286.5 -70t-271 106t-102 263q0 96 39 194.5
t114 178.5t186 130t223 50q183 0 267.5 -72t84.5 -187t-110 -187t-303 -72q-102 0 -195 31l-33 -140q-19 -82 -19 -135zM954 1061l-20 -14l-221 151l-283 -156l-20 19l274 274h88z" />
    <glyph glyph-name="edieresis" unicode="&#xeb;" horiz-adv-x="987" 
d="M770 743q0 121 -98 121q-112 0 -148.5 -89t-48.5 -132l-55 -201q69 -12 92 -12q113 0 185.5 79t72.5 234zM360 135q0 -53 45.5 -85t100.5 -32q131 0 240.5 64.5t187.5 175.5q12 16 25 16t13 -18t-22 -50q-67 -91 -184.5 -161t-286.5 -70t-271 106t-102 263q0 96 39 194.5
t114 178.5t186 130t223 50q183 0 267.5 -72t84.5 -187t-110 -187t-303 -72q-102 0 -195 31l-33 -140q-19 -82 -19 -135zM1071 1225q0 -53 -41 -101.5t-117 -48.5t-108.5 39t-32.5 92t41 102.5t116 49.5t108.5 -40t33.5 -93zM647 1225q0 -53 -41 -101.5t-117 -48.5t-108.5 39
t-32.5 92t41 102.5t116 49.5t108.5 -40t33.5 -93z" />
    <glyph glyph-name="igrave" unicode="&#xec;" horiz-adv-x="686" 
d="M473 80q29 0 73 46t95 148q8 18 22.5 19t14.5 -15t-6 -28q-57 -125 -137 -200t-216 -75q-80 0 -127 41t-47 121q0 37 13 86l174 637l-117 -14l10 35l437 65l-203 -747q-15 -52 -15 -86q0 -33 29 -33zM276 1352h170l119 -308l-35 -10z" />
    <glyph glyph-name="iacute" unicode="&#xed;" horiz-adv-x="686" 
d="M473 80q29 0 73 46t95 148q8 18 22.5 19t14.5 -15t-6 -28q-57 -125 -137 -200t-216 -75q-80 0 -127 41t-47 121q0 37 13 86l174 637l-117 -14l10 35l437 65l-203 -747q-15 -52 -15 -86q0 -33 29 -33zM705 1352h206l-391 -338l-45 22z" />
    <glyph glyph-name="icircumflex" unicode="&#xee;" horiz-adv-x="686" 
d="M473 80q29 0 73 46t95 148q8 18 22.5 19t14.5 -15t-6 -28q-57 -125 -137 -200t-216 -75q-80 0 -127 41t-47 121q0 37 13 86l174 637l-117 -14l10 35l437 65l-203 -747q-15 -52 -15 -86q0 -33 29 -33zM788 1075l-20 -16l-219 151l-285 -155l-20 20l276 273h88z" />
    <glyph glyph-name="idieresis" unicode="&#xef;" horiz-adv-x="686" 
d="M924 1225q0 -53 -41 -101.5t-117 -48.5t-108.5 39t-32.5 92t41.5 102.5t115.5 49.5t108 -40t34 -93zM500 1225q0 -53 -41 -101.5t-117 -48.5t-108.5 39t-32.5 92t41.5 102.5t115.5 49.5t108 -40t34 -93zM473 80q29 0 73 46t95 148q8 18 22.5 19t14.5 -15t-6 -28
q-57 -125 -137 -200t-216 -75q-80 0 -127 41t-47 121q0 37 13 86l174 637l-117 -14l10 35l437 65l-203 -747q-15 -52 -15 -86q0 -33 29 -33z" />
    <glyph glyph-name="eth" unicode="&#xf0;" horiz-adv-x="1048" 
d="M1057 561q0 -244 -159.5 -415t-389.5 -171q-190 0 -291.5 105.5t-101.5 277.5q0 113 44 211.5t117.5 170t170 113.5t186.5 42t147 -14q-13 172 -121 270l-63 -104l-66 40l68 109q-84 43 -178 43l24 68q106 0 199 -35l64 102l65 -41l-59 -98q49 -31 109.5 -77
t147.5 -172.5t87 -424.5zM379 150q0 -140 115 -140q105 0 199.5 300t94.5 444q0 36 -21.5 70t-75.5 34q-90 0 -136 -72.5t-79 -202.5q-34 -130 -52 -206t-31.5 -132.5t-13.5 -94.5z" />
    <glyph glyph-name="ntilde" unicode="&#xf1;" horiz-adv-x="1171" 
d="M811 762q0 82 -57 82q-51 0 -131 -67.5t-105 -164.5l-166 -612h-303l225 844l-116 -23l10 35l438 68l-49 -168q53 63 126 106t183 43t169 -67.5t59 -159.5q0 -46 -17 -105l-88 -323q-18 -74 -18 -90q0 -54 29 -54q54 -1 163 187q11 16 23 16t12 -9t-4 -21
q-53 -125 -142 -207t-214 -82q-80 0 -121 48t-41 112t16 126l99 367q20 80 20 119zM934 1200q64 0 74 57q10 29 27 29t17 -22q1 -51 -52 -102.5t-131 -51.5q-77 0 -119 9t-84 29t-67 37t-57 17t-58.5 -20.5t-34.5 -51.5t-27 -30q-16 0 -16 19q0 51 54.5 110t149.5 59
q94 0 195 -47q29 -14 59.5 -27.5t69.5 -13.5z" />
    <glyph glyph-name="ograve" unicode="&#xf2;" horiz-adv-x="1048" 
d="M379 150q0 -140 115 -140q105 0 199.5 300t94.5 444q0 36 -21.5 70t-75.5 34q-90 0 -136 -72.5t-79 -202.5q-34 -130 -52 -206t-31.5 -132.5t-13.5 -94.5zM115 374q0 98 44 196t117.5 169.5t170 113.5t200.5 42q195 0 302.5 -104.5t107.5 -286.5q0 -226 -157.5 -377.5
t-391.5 -151.5q-190 0 -291.5 105.5t-101.5 293.5zM455 1352h168l118 -308l-34 -10z" />
    <glyph glyph-name="oacute" unicode="&#xf3;" horiz-adv-x="1048" 
d="M379 150q0 -140 115 -140q105 0 199.5 300t94.5 444q0 36 -21.5 70t-75.5 34q-90 0 -136 -72.5t-79 -202.5q-34 -130 -52 -206t-31.5 -132.5t-13.5 -94.5zM115 374q0 98 44 196t117.5 169.5t170 113.5t200.5 42q195 0 302.5 -104.5t107.5 -286.5q0 -226 -157.5 -377.5
t-391.5 -151.5q-190 0 -291.5 105.5t-101.5 293.5zM848 1352h207l-391 -338l-46 22z" />
    <glyph glyph-name="ocircumflex" unicode="&#xf4;" horiz-adv-x="1048" 
d="M379 150q0 -140 115 -140q105 0 199.5 300t94.5 444q0 36 -21.5 70t-75.5 34q-90 0 -136 -72.5t-79 -202.5q-34 -130 -52 -206t-31.5 -132.5t-13.5 -94.5zM115 374q0 98 44 196t117.5 169.5t170 113.5t200.5 42q195 0 302.5 -104.5t107.5 -286.5q0 -226 -157.5 -377.5
t-391.5 -151.5q-190 0 -291.5 105.5t-101.5 293.5zM971 1061l-19 -14l-221 151l-285 -156l-18 19l274 274h89z" />
    <glyph glyph-name="otilde" unicode="&#xf5;" horiz-adv-x="1048" 
d="M379 150q0 -140 115 -140q105 0 199.5 300t94.5 444q0 36 -21.5 70t-75.5 34q-90 0 -136 -72.5t-79 -202.5q-34 -130 -52 -206t-31.5 -132.5t-13.5 -94.5zM115 374q0 98 44 196t117.5 169.5t170 113.5t200.5 42q195 0 302.5 -104.5t107.5 -286.5q0 -226 -157.5 -377.5
t-391.5 -151.5q-190 0 -291.5 105.5t-101.5 293.5zM918 1200q63 0 73 57q9 29 27 29t18 -22q0 -52 -52.5 -103t-130.5 -51q-77 0 -120 9t-84 29t-66.5 37t-57.5 17t-58.5 -20.5t-34.5 -51.5t-26 -30q-33 0 -5.5 66.5t88 94t129.5 27.5t170 -47q29 -14 60.5 -27.5t69.5 -13.5
z" />
    <glyph glyph-name="odieresis" unicode="&#xf6;" horiz-adv-x="1048" 
d="M379 150q0 -140 115 -140q105 0 199.5 300t94.5 444q0 36 -21.5 70t-75.5 34q-90 0 -136 -72.5t-79 -202.5q-34 -130 -52 -206t-31.5 -132.5t-13.5 -94.5zM115 374q0 98 44 196t117.5 169.5t170 113.5t200.5 42q195 0 302.5 -104.5t107.5 -286.5q0 -226 -157.5 -377.5
t-391.5 -151.5q-190 0 -291.5 105.5t-101.5 293.5zM1085 1225q0 -53 -40.5 -101.5t-116.5 -48.5t-109 39t-33 92t41 102.5t116 49.5t108.5 -40t33.5 -93zM662 1225q0 -53 -41 -101.5t-117 -48.5t-109 39t-33 92t41 102.5t116 49.5t109 -40t34 -93z" />
    <glyph glyph-name="divide" unicode="&#xf7;" horiz-adv-x="759" 
d="M659 839q0 -42 -31.5 -80t-90.5 -38t-86 31.5t-27 72.5t31 80t91 39t86.5 -31.5t26.5 -73.5zM504 253q0 -42 -32 -80t-91 -38t-86 32t-27 73t32 79.5t91 38.5t86 -31.5t27 -73.5zM752 588l-25 -88h-545l25 88h545z" />
    <glyph glyph-name="oslash" unicode="&#xf8;" horiz-adv-x="1054" 
d="M696 858q-58 0 -91.5 -23.5t-64.5 -72.5t-64 -179q-34 -130 -52 -206t-31.5 -132.5t-13.5 -94.5l397 659q-22 49 -80 49zM389 82q22 -72 105 -72q105 0 199.5 300t94.5 440zM1057 504q0 -226 -157.5 -377.5t-391.5 -151.5q-92 0 -168 27l-64 -108l-36 14l65 108
q-190 91 -190 342q0 113 44 211.5t117.5 170t170 113.5t194.5 42t172 -25l66 111l36 -18l-63 -107q205 -94 205 -352z" />
    <glyph glyph-name="ugrave" unicode="&#xf9;" horiz-adv-x="1224" 
d="M180 232q0 82 27 182l117 428l-115 -15l8 33l428 53l-156 -596q-28 -100 -28 -186t55 -86t126.5 64.5t107.5 199.5l153 572h305l-194 -731q-4 -16 -4 -33t12 -32t40 -15t78 44t109 158q8 20 21 21q16 0 16 -23t-54 -102.5t-122 -135t-203 -55.5q-172 0 -172 193
q-47 -85 -122 -141t-212 -56q-87 0 -131.5 37t-67 88.5t-22.5 133.5zM530 1352h170l119 -308l-35 -10z" />
    <glyph glyph-name="uacute" unicode="&#xfa;" horiz-adv-x="1224" 
d="M180 232q0 82 27 182l117 428l-115 -15l8 33l428 53l-156 -596q-28 -100 -28 -186t55 -86t126.5 64.5t107.5 199.5l153 572h305l-194 -731q-4 -16 -4 -33t12 -32t40 -15t78 44t109 158q8 20 21 21q16 0 16 -23t-54 -102.5t-122 -135t-203 -55.5q-172 0 -172 193
q-47 -85 -122 -141t-212 -56q-87 0 -131.5 37t-67 88.5t-22.5 133.5zM969 1352h207l-392 -338l-45 22z" />
    <glyph glyph-name="ucircumflex" unicode="&#xfb;" horiz-adv-x="1224" 
d="M180 232q0 82 27 182l117 428l-115 -15l8 33l428 53l-156 -596q-28 -100 -28 -186t55 -86t126.5 64.5t107.5 199.5l153 572h305l-194 -731q-4 -16 -4 -33t12 -32t40 -15t78 44t109 158q8 20 21 21q16 0 16 -23t-54 -102.5t-122 -135t-203 -55.5q-172 0 -172 193
q-47 -85 -122 -141t-212 -56q-87 0 -131.5 37t-67 88.5t-22.5 133.5zM1051 1061l-21 -14l-219 151l-285 -156l-20 19l276 274h88z" />
    <glyph glyph-name="udieresis" unicode="&#xfc;" horiz-adv-x="1224" 
d="M180 232q0 82 27 182l117 428l-115 -15l8 33l428 53l-156 -596q-28 -100 -28 -186t55 -86t126.5 64.5t107.5 199.5l153 572h305l-194 -731q-4 -16 -4 -33t12 -32t40 -15t78 44t109 158q8 20 21 21q16 0 16 -23t-54 -102.5t-122 -135t-203 -55.5q-172 0 -172 193
q-47 -85 -122 -141t-212 -56q-87 0 -131.5 37t-67 88.5t-22.5 133.5zM1194 1225q0 -53 -41 -101.5t-117 -48.5t-108.5 39t-32.5 92t41 102.5t116 49.5t108.5 -40t33.5 -93zM770 1225q0 -53 -41 -101.5t-117 -48.5t-108.5 39t-32.5 92t41 102.5t116 49.5t108.5 -40t33.5 -93z
" />
    <glyph glyph-name="yacute" unicode="&#xfd;" horiz-adv-x="1222" 
d="M969 1352h207l-392 -338l-45 22zM175 716.5q-69 -67.5 -103 -120.5q-6 -12 -17 -12q-16 0 -16 18q1 8 19 32t57 74t121.5 122.5t189.5 72.5q106 0 162.5 -32.5t75.5 -114.5l102 -457q150 363 204 450t88 111t91 25q57 0 91 -36t34 -98t-42 -98.5t-86 -36.5q-97 0 -128 86
q-4 6 -8 7q-23 0 -89.5 -149.5t-110.5 -253.5t-98 -218q-132 -276 -282 -454.5t-301 -178.5q-72 0 -120 44t-48 110q0 94 52.5 119.5t100.5 25.5t85 -38t37 -89t-27 -81.5t-55 -43.5q90 0 214 136.5t169 234.5l-158 748q-23 104 -36.5 133.5t-56.5 29.5q-42 0 -111 -67.5z
" />
    <glyph glyph-name="thorn" unicode="&#xfe;" horiz-adv-x="1165" 
d="M596 37q57 0 91.5 45.5t58.5 133.5t78.5 289.5t54.5 256.5q0 80 -60 80q-73 0 -147.5 -73.5t-91.5 -129.5l-103 -385q-10 -36 -10 -85t36 -90.5t93 -41.5zM863 901q151 0 228.5 -92t77.5 -238q0 -98 -36.5 -201.5t-108.5 -188.5t-176 -139t-212 -54t-145.5 32.5
t-54.5 75.5l-164 -614h134l-9 -33h-565l10 33h113l496 1825l-117 -19l16 33l432 65l-166 -614q45 47 104.5 88t142.5 41z" />
    <glyph glyph-name="ydieresis" unicode="&#xff;" horiz-adv-x="1222" 
d="M175 716.5q-69 -67.5 -103 -120.5q-6 -12 -17 -12q-16 0 -16 18q1 8 19 32t57 74t121.5 122.5t189.5 72.5q106 0 162.5 -32.5t75.5 -114.5l102 -457q150 363 204 450t88 111t91 25q57 0 91 -36t34 -98t-42 -98.5t-86 -36.5q-97 0 -128 86q-4 6 -8 7q-23 0 -89.5 -149.5
t-110.5 -253.5t-98 -218q-132 -276 -282 -454.5t-301 -178.5q-72 0 -120 44t-48 110q0 94 52.5 119.5t100.5 25.5t85 -38t37 -89t-27 -81.5t-55 -43.5q90 0 214 136.5t169 234.5l-158 748q-23 104 -36.5 133.5t-56.5 29.5q-42 0 -111 -67.5zM1171 1225q0 -53 -40.5 -101.5
t-116.5 -48.5t-109 39t-33 92t41 102.5t116 49.5t108.5 -40t33.5 -93zM748 1225q0 -53 -41 -101.5t-117 -48.5t-108.5 39t-32.5 92t40.5 102.5t115.5 49.5t109 -40t34 -93z" />
    <glyph glyph-name="OE" unicode="&#x152;" horiz-adv-x="2084" 
d="M1190 1184q0 72 -44 124q-44 54 -142 54t-158 -37q-117 -73 -174 -241q-29 -81 -54 -169l-133 -493q-38 -148 -38 -226q-1 -80 42 -136t149 -56t168 39q114 74 167 238q25 76 45 149l133 500q16 66 28 124q11 58 11 130zM656 -32q-260 -2 -389 143q-130 145 -130 365
q0 219 99 425q166 345 503 458q119 40 275 40t272 -70l12 47h770q51 0 52 -39q0 -18 -13 -61l-69 -258q-8 -31 -22 -31t-15 25l2 49q0 176 -115 254q-43 29 -106 28h-191l-159 -602h147q66 -1 113 57t84 134q8 18 22 18t14 -18v-4t-2 -13l-110 -444q-6 -23 -19 -22
q-18 0 -18 28l2 68q0 70 -20 117t-76 47h-148l-180 -676h252q134 0 232 98q99 98 149 242q14 41 35 41q14 0 14 -23q0 -4 -8 -37l-76 -288q-18 -66 -74 -66h-835l4 16q-136 -47 -278 -48z" />
    <glyph glyph-name="oe" unicode="&#x153;" horiz-adv-x="1579" 
d="M1393 743q0 121 -99 121q-111 0 -147.5 -89t-48.5 -132l-56 -201q69 -12 93 -12q113 0 185.5 79t72.5 234zM379 150q0 -140 115 -140q105 0 199.5 300t94.5 444q0 36 -21.5 70t-75.5 34q-90 0 -136 -72.5t-79 -202.5q-34 -130 -52 -206t-31.5 -132.5t-13.5 -94.5z
M1319 897q154 0 238.5 -71.5t84.5 -186.5t-109.5 -187.5t-287.5 -72.5q-118 0 -211 31l-33 -140q-18 -77 -18 -133q0 -55 45 -87t100 -32q131 0 241 64.5t187 175.5q12 16 26 16t13 -18q1 -18 -23 -50q-67 -91 -184.5 -161t-281.5 -70q-165 0 -270 101q-142 -101 -330 -101
t-289.5 105.5t-101.5 277.5q0 113 44 211.5t117.5 170t170 113.5t200.5 42q198 0 309 -113q156 115 363 115z" />
    <glyph glyph-name="Scaron" unicode="&#x160;" horiz-adv-x="1140" 
d="M623 1745l18 16l221 -153l283 157l20 -20l-274 -272h-88zM866 1399q160 0 269 -109l73 72q22 22 34.5 22t12.5 -10v-16q0 -4 -4 -17l-69 -249q-8 -31 -21 -31q-14 0 -18 12t-9 49q-13 97 -86.5 168.5t-210.5 71.5t-211.5 -61.5t-74.5 -149.5q-1 -115 111 -179
q62 -36 128 -76t130 -75q239 -133 239 -359q0 -216 -152.5 -347t-453.5 -131q-216 0 -336 143l-102 -98q-31 -31 -46 -31t-15 14t9 51l84 316q13 45 25 45t18.5 -9t10.5 -38q20 -168 106 -262.5t240 -94.5t242 78.5t88 180t-86 157.5q-62 41 -166.5 101.5t-183.5 111.5
t-122 135t-43 172t34 167t104.5 140.5t181 98.5t270.5 37z" />
    <glyph glyph-name="scaron" unicode="&#x161;" horiz-adv-x="849" 
d="M418 1346l18 16l221 -154l283 158l21 -20l-275 -273h-88zM549 164q0 125 -170 218t-170 228t106.5 213t264.5 78t241.5 -53.5t83.5 -124.5q0 -39 -24.5 -68.5t-68.5 -29.5t-73.5 23.5t-29.5 58.5q0 66 57 90q14 6 14 14q0 16 -50 36.5t-120 20.5q-164 0 -164 -106
q0 -43 35 -82t127 -86q197 -102 197 -295q0 -140 -111.5 -232t-291.5 -92t-275.5 71.5t-95.5 158.5q0 49 30.5 85t79.5 36t85 -29t36 -77t-31.5 -75.5t-74.5 -33.5q-27 -9 -1.5 -30.5t82 -47t138.5 -25.5q174 0 174 156z" />
    <glyph glyph-name="Ydieresis" unicode="&#x178;" horiz-adv-x="1374" 
d="M1395 1296q0 49 -80 50l8 32h326l-9 -32q-123 0 -223 -125l-422 -562l-168 -626h111l-8 -33h-551l8 33h111l153 573l-200 737h-109l8 33h568l-9 -33h-110l159 -659l408 543q29 41 29 69zM1380 1631q0 -48 -36 -91t-104 -43t-98 35t-30 83t36 92t104 44t98 -36t30 -84z
M999 1631q0 -48 -36.5 -91t-104.5 -43t-97.5 35t-29.5 83t36 92t103 44t98 -36t31 -84z" />
    <glyph glyph-name="florin" unicode="&#x192;" horiz-adv-x="1486" 
d="M1411 1057l-248 -1057h-1057l248 1057h1057z" />
    <glyph glyph-name="circumflex" unicode="&#x2c6;" horiz-adv-x="825" 
d="M709 1061l-19 -14l-221 151l-285 -156l-18 19l274 274h88z" />
    <glyph glyph-name="tilde" unicode="&#x2dc;" horiz-adv-x="946" 
d="M690 1200q64 0 74 57q10 29 28 29t17 -22q0 -52 -53 -103t-131 -51q-77 0 -119.5 9t-83.5 29t-66.5 37t-57.5 17t-58.5 -20.5t-34.5 -51.5t-27 -30q-16 0 -16 19q0 52 55.5 110.5t148.5 58.5q94 0 195 -47q29 -14 59.5 -27.5t69.5 -13.5z" />
    <glyph glyph-name="endash" unicode="&#x2013;" horiz-adv-x="749" 
d="M696 653l-24 -88h-533l25 88h532z" />
    <glyph glyph-name="emdash" unicode="&#x2014;" horiz-adv-x="1421" 
d="M1430 653l-25 -88h-1204l24 88h1205z" />
    <glyph glyph-name="quoteleft" unicode="&#x2018;" horiz-adv-x="518" 
d="M692 1493q10 0 10 -9t-16 -16q-123 -27 -209.5 -110.5t-101.5 -165.5q-4 -10 -4 -39t14 -29q6 0 8 8.5t4 12.5q29 78 127 78q51 0 94.5 -39t43.5 -101q0 -102 -57.5 -128.5t-102.5 -26.5q-92 0 -146.5 56t-54.5 132v34q0 34 69 160.5t304 178.5q8 4 18 4z" />
    <glyph glyph-name="quoteright" unicode="&#x2019;" horiz-adv-x="550" 
d="M356 897q-10 0 -10 9t16 16q121 28 221 120q77 75 91 156q4 10 4 39t-14 29q-6 0 -8 -8q-27 -90 -132 -91q-51 0 -94 39t-43 102t35 103q40 51 128 51q89 0 143 -56t55 -132v-19q-11 -112 -111 -216q-102 -104 -262 -138q-9 -4 -19 -4z" />
    <glyph glyph-name="quotesinglbase" unicode="&#x201a;" horiz-adv-x="550" 
d="M336 -115q-10 -1 -10 9t16 16q125 29 212 114t99 162q4 10 4 39t-14 29q-6 0 -8 -8q-23 -91 -131 -90q-51 0 -94 39t-43 100q0 104 84 141q31 14 75 15q92 -1 146 -57t55 -132v-18q0 -48 -33 -109q-105 -194 -340 -246q-8 -4 -18 -4z" />
    <glyph glyph-name="quotedblleft" unicode="&#x201c;" horiz-adv-x="958" 
d="M1030 1493q10 0 10 -9t-16 -16q-123 -27 -209.5 -110.5t-101.5 -165.5q-4 -10 -4 -39t14 -29q6 0 8 8.5t4 12.5q29 78 127 78q51 0 94 -39t43 -101q0 -103 -57 -129t-102 -26q-92 0 -146.5 56t-54.5 132v34q0 34 69 160.5t304 178.5q8 4 18 4zM582 1493q10 0 10 -9
t-17 -16q-123 -27 -209.5 -110.5t-101.5 -165.5q-4 -10 -4 -39t14 -29q6 0 20.5 49.5t119.5 49.5q51 0 94 -39t43 -101q0 -103 -57.5 -129t-102.5 -26q-92 0 -146.5 56t-54.5 132q0 122 105.5 229.5t267.5 143.5q9 4 19 4z" />
    <glyph glyph-name="quotedblright" unicode="&#x201d;" horiz-adv-x="958" 
d="M344 897q-10 0 -10 9t16 16q124 28 209.5 110.5t102.5 165.5q4 10 4 39t-15 29q-6 0 -8 -8.5t-4 -12.5q-29 -78 -127 -78q-51 0 -94 39t-43 101q0 103 57 129t103 26q92 0 146 -56t54 -132v-32q0 -33 -67 -161t-306 -180q-8 -4 -18 -4zM793 897q-10 0 -11 10q0 8 17 15
q124 28 210.5 111.5t100.5 164.5q4 10 4 39t-14 29q-6 0 -8 -8.5t-5 -12.5q-29 -78 -126 -78q-51 0 -94.5 39t-43.5 101q0 102 57.5 128.5t102.5 26.5q92 0 146.5 -56t54.5 -132v-33q0 -33 -68 -160.5t-305 -179.5q-8 -4 -18 -4z" />
    <glyph glyph-name="quotedblbase" unicode="&#x201e;" horiz-adv-x="958" 
d="M287 -115q-10 0 -11 11q0 8 17 14q125 29 211 112.5t100 163.5q4 10 4 39t-14 29q-6 0 -18.5 -49.5t-120.5 -48.5q-51 0 -94.5 38.5t-43.5 100.5q0 101 57.5 128.5t102.5 27.5q92 0 146.5 -56.5t54.5 -132.5v-33q0 -33 -69 -160.5t-304 -179.5q-8 -4 -18 -4zM736 -115
q-10 -1 -11 9q0 10 16 16q127 29 212.5 113.5t99.5 162.5q4 10 4 39t-15 29q-6 0 -18.5 -49.5t-120.5 -48.5q-51 0 -94 38.5t-43 100.5q0 102 57.5 129t102.5 27q92 0 146 -56.5t54 -132.5v-32q0 -33 -67.5 -161t-304.5 -180q-8 -4 -18 -4z" />
    <glyph glyph-name="dagger" unicode="&#x2020;" horiz-adv-x="737" 
d="M502 1446q23 0 22 -25l6 -137q0 -54 -51 -129q-12 -18 -16 -41l-14 -59h133l-13 -56h-131l-143 -671h-55l143 671h-131l10 56h133l8 39q3 22 5 30t2 13l-11 96q-1 31 15 63t28 58t28 60q16 32 32 32z" />
    <glyph glyph-name="daggerdbl" unicode="&#x2021;" horiz-adv-x="624" 
d="M496 1405q23 0 22 -25l6 -137q0 -43 -18 -75t-31.5 -52t-17.5 -43l-27 -119h133l-14 -55h-131l-101 -436h134l-13 -55h-133l-22 -99q-4 -14 -4 -16v-25l8 -98q0 -34 -21 -70q-10 -25 -22.5 -51t-27.5 -59q-16 -33 -34 -33t-18 25l-8 139q0 55 32.5 100t36.5 68l27 119
h-133l12 55h131l100 436h-133l15 55h131l22 99q6 34 6 43l-10 96q0 31 26 86q26 54 43 90q17 37 34 37z" />
    <glyph glyph-name="bullet" unicode="&#x2022;" horiz-adv-x="935" 
d="M265 688q103 105 262 105t238 -79t79 -204t-103.5 -229.5t-262.5 -104.5t-237.5 79t-78.5 204q0 124 103 229z" />
    <glyph glyph-name="ellipsis" unicode="&#x2026;" horiz-adv-x="1662" 
d="M1546 160q0 -82 -48.5 -132.5t-129.5 -50.5q-82 0 -121 45.5t-39 89.5q0 81 49 132t130 51q82 0 120.5 -45.5t38.5 -89.5zM997 160q0 -82 -48.5 -132.5t-129.5 -50.5q-82 0 -121 45.5t-39 89.5q0 81 49 132t130 51q82 0 120.5 -45.5t38.5 -89.5zM449 160q0 -81 -49 -132
t-130 -51q-82 0 -120.5 45.5t-38.5 89.5q0 82 48.5 132.5t129.5 50.5q82 0 121 -45.5t39 -89.5z" />
    <glyph glyph-name="perthousand" unicode="&#x2030;" horiz-adv-x="2785" 
d="M2177 119q0 -92 84 -92q75 0 108 75.5t51.5 143t41 149.5t43 157t20.5 122t-16.5 69.5t-62.5 22.5q-83 0 -118.5 -86.5t-72.5 -225.5t-57.5 -210.5t-20.5 -124.5zM1933 315q0 74 36 158t102.5 154.5t164.5 118t200 47.5t161 -24t97 -67t56.5 -102t18.5 -131t-35 -154
t-145 -198.5t-336 -116.5q-166 0 -243 88t-77 227zM1284 119q0 -92 84 -92q75 0 108 75.5t51.5 143t41 149.5t43 157t20.5 122t-16.5 69.5t-62.5 22.5q-83 0 -118.5 -86.5t-72.5 -225.5t-57.5 -210.5t-20.5 -124.5zM1040 315q0 74 36 158t102.5 154.5t164 118t199.5 47.5
t161.5 -24t97.5 -67t56.5 -102t18.5 -131t-35 -154t-145 -198.5t-336 -116.5q-166 0 -243 88t-77 227zM494 731q0 -47 18 -72.5t64 -25.5t73 26.5t48.5 75.5t40 117t41 149.5t43 156.5t20.5 122t-16.5 69.5t-62.5 22.5q-84 0 -119.5 -86.5t-72.5 -225.5t-57 -210.5
t-20 -118.5zM250 922q0 74 36 157.5t102.5 154.5t164 118t199.5 47t161.5 -23.5t97.5 -66.5t56 -102.5t18 -131t-34.5 -153.5t-144 -199t-337.5 -117q-166 0 -242.5 88.5t-76.5 227.5zM344 -8h-98l1509 1407h96z" />
    <glyph glyph-name="guilsinglleft" unicode="&#x2039;" horiz-adv-x="694" 
d="M575 870h35l-336 -319l164 -320h-35l-260 320z" />
    <glyph glyph-name="guilsinglright" unicode="&#x203a;" horiz-adv-x="638" 
d="M84 231l334 320l-162 319h35l260 -319l-432 -320h-35z" />
    <glyph glyph-name="trademark" unicode="&#x2122;" horiz-adv-x="1013" 
d="M752 1006h57l96 358h-57l2 12h111l32 -293l174 293h121l-2 -12h-55l-96 -358h55l-4 -17h-174l4 17h57l88 327l-205 -344h-12l-35 322l-82 -305h58l-4 -17h-133zM754 1315q0 41 -54 41h-55l-92 -348h57l-6 -19h-176l6 19h55l93 348h-54q-37 0 -53 -16t-29 -46h-18l29 82
h325l-12 -84h-18q2 8 2 23z" />
    <glyph glyph-name="NUL" unicode="&#xe000;" horiz-adv-x="0" 
 />
    <glyph glyph-name="HT" unicode="&#xe001;" horiz-adv-x="0" 
 />
    <glyph glyph-name="minus" unicode="&#xe003;" horiz-adv-x="931" 
d="M819 610v-110h-704v110h704z" />
    <glyph glyph-name="notequal" unicode="&#xe004;" horiz-adv-x="802" 
d="M838 535l-27 -109h-324l-98 -172h-121l97 172h-138l31 109h174l92 165h-221l27 111h260l94 170h125l-100 -170h198l-26 -111h-234l-96 -165h287z" />
    <glyph glyph-name="infinity" unicode="&#xe005;" horiz-adv-x="1841" 
d="M1152 794q230 177 423 177t235 -156q31 -115 -14 -250q-59 -178 -213 -263q-80 -44 -179 -44q-185 0 -267 60t-160 219q-59 -47 -121 -97q-230 -183 -457 -182q-118 0 -170 69q-53 69 -53 164q0 195 116 337q116 143 312 143q230 0 350 -171q35 -50 70 -108
q63 51 128 102zM1358 344q60 0 108 35q95 68 132 217q38 150 -17 225q-31 43 -95 43q-156 0 -337 -166q-47 -43 -86 -80q23 -49 49 -97q100 -177 246 -177zM506 365q177 0 432 245q-23 49 -50 98q-103 177 -246 177q-58 0 -106 -35t-80 -88q-63 -104 -65 -244q0 -70 30 -112
t85 -41z" />
    <glyph glyph-name="lessequal" unicode="&#xe006;" horiz-adv-x="880" 
d="M696 369l-43 -105h-538l41 105h540zM868 1145l-30 -111l-439 -227l355 -258l-31 -98l-483 364z" />
    <glyph glyph-name="greaterequal" unicode="&#xe007;" horiz-adv-x="903" 
d="M778 365l-47 -99h-571l45 99h573zM268 578l432 219l-311 225l27 100l452 -329l-630 -330z" />
    <glyph glyph-name="partialdiff" unicode="&#xe008;" 
d="M192 188q74 0 74 -51t-25 -66.5t-43 -15.5t-30 4h-2q-4 0 -4 -8t22.5 -26.5t70.5 -18.5t73.5 26.5t49 80.5t23.5 135q0 80 -69 80h-78q-12 0 -12 8t14 8h80q69 0 103 64t34 114t-12 68t-46 18t-60.5 -11t-26.5 -15t14 -4t27.5 -17.5t13.5 -49.5t-21.5 -51.5t-50.5 -19.5
q-69 0 -69 68q0 41 50 80t141 39t129 -37t38 -94t-48 -104.5t-138 -57.5q47 -10 82.5 -43t35.5 -98q0 -122 -92 -162.5t-171 -40.5t-115.5 32.5t-36.5 71.5t20.5 66.5t54.5 27.5zM420 1362q-8 0 -8 4t18 12q55 14 112.5 51t104.5 66h78l-160 -604h47l-2 -14h-237l2 14h51
l139 524q-55 -37 -133 -51q-4 -2 -12 -2zM143 776h596l-6 -37h-596z" />
    <glyph glyph-name="summation" unicode="&#xe009;" 
d="M305 227l74 275q-131 -131 -240 -275h166zM549 621l-105 -394h84l-14 -55h-86l-41 -156h49l-4 -16h-237l4 16h49l43 156h-207l4 21q85 114 209.5 252.5t161.5 175.5h90zM399 1360q-8 0 -8 4t19 12q55 14 112.5 51t104.5 66h78l-160 -604h47l-2 -15h-238l2 15h52l139 524
q-55 -37 -133 -51q-5 -2 -13 -2zM127 776h598l-6 -37h-598z" />
    <glyph glyph-name="product" unicode="&#xe00a;" 
d="M145 188q74 0 74 -51t-24.5 -66.5t-42.5 -15.5t-31 4h-2q-4 0 -4 -8t22.5 -26.5t70.5 -18.5t73.5 26.5t49 80.5t23.5 135q0 80 -69 80h-78q-12 0 -12 8t14 8h80q69 0 103 64t34 114t-12 68t-46 18t-60.5 -11t-26.5 -15q1 -4 15 -4t27 -17.5t13 -49.5t-21.5 -51.5
t-50.5 -19.5q-69 0 -69 68q0 41 50 80t141 39t129 -37t38 -94t-48 -104.5t-138 -57.5q47 -10 82.5 -43t35.5 -98q0 -122 -92 -162.5t-171 -40.5t-115.5 32.5t-36.5 71.5t20.5 66.5t54.5 27.5zM502 1362q0 -55 -24.5 -76.5t-55.5 -21.5t-55.5 18t-24.5 52q0 65 65.5 113
t148.5 48t134 -39.5t51 -103.5q0 -201 -233 -295q-37 -18 -82 -35.5t-80 -46.5h217q65 1 103 71q10 18 14 17q4 0 4 -7t-6 -20l-88 -168h-352l8 25q17 67 116.5 136t135.5 99q112 93 112 238q0 109 -71 109q-45 0 -79 -19.5t-48 -38.5q90 0 90 -55zM96 776h598l-8 -37h-596z
" />
    <glyph glyph-name="pi" unicode="&#xe00b;" 
d="M289 227l73 275q-71 -71 -143 -156.5t-96 -118.5h166zM532 621l-104 -394h84l-14 -55h-86l-41 -156h49l-4 -16h-238l4 16h49l43 156h-206l4 21q96 129 215 260t155 168h90zM345 1047q75 0 75 -51.5t-25 -67t-43 -15.5t-30 5h-3q-4 0 -4 -8t22.5 -27t70.5 -19t74 27
t49.5 80.5t23.5 133.5q0 81 -70 81h-77q-12 0 -13 6q0 10 15 10h79q71 0 104.5 65t33.5 114t-12.5 67t-46.5 18t-60.5 -11t-26.5 -15q1 -4 15 -4t27.5 -17.5t13.5 -49.5t-21.5 -51.5t-50.5 -19.5q-70 0 -70 68q0 41 50.5 80t141.5 39t129 -37t38 -94t-48.5 -104.5
t-138.5 -57.5q47 -10 83 -43t36 -98q0 -121 -92 -162t-171 -41t-116 32t-37 72t20.5 67.5t54.5 27.5zM113 754h596l-7 -35h-596z" />
    <glyph glyph-name="integral" unicode="&#xe00c;" horiz-adv-x="1794" 
d="M1706 1278h-1233l-287 -1233h1235zM1761 1321l-307 -1321h-1321l307 1321h1321z" />
    <glyph glyph-name="radical" unicode="&#xe00d;" horiz-adv-x="1447" 
d="M199 496q113 -102 145 -371q92 247 344.5 538.5t395.5 404t227 155.5l-31 -222q-586 -346 -938 -1011q-54 137 -101 200.5t-120 104.5z" />
    <glyph glyph-name="approxequal" unicode="&#xe00e;" horiz-adv-x="1710" 
d="M276 228q0 -64 47 -106t133 -42t143.5 57.5t72.5 141.5l33 188h-189q-90 0 -165 -63t-75 -176zM1122 231q0 -74 43 -112.5t105 -38.5q110 0 180 62.5t70 166.5q0 68 -47.5 113t-124.5 45h-189l-33 -188q-4 -24 -4 -48zM1669 1170q0 58 -46 100.5t-133 42.5t-143.5 -52.5
t-72.5 -146.5l-33 -188h189q105 0 172 69t67 175zM575 825q-113 0 -181 69t-68 195t96.5 225t233.5 99t202.5 -66.5t65.5 -170.5v-22q0 -21 -4 -36l-33 -192h254l33 192q23 139 109.5 217t217.5 78t201 -73.5t70 -188.5q0 -116 -100.5 -221t-256.5 -105h-192l-45 -258h192
q115 0 182.5 -74t67.5 -198q0 -123 -103.5 -219t-227.5 -96t-196.5 59t-72.5 174q0 27 6 61l33 193h-254l-33 -193q-21 -129 -114 -211.5t-221 -82.5t-195.5 70.5t-67.5 195.5t105.5 223t250.5 98h193l45 258h-193zM823 1159q0 66 -39 110t-108 44q-121 0 -185.5 -68
t-64.5 -152q0 -167 172 -167h188l33 188q4 20 4 45zM823 567h254l45 258h-254z" />
    <glyph glyph-name="nonbreakingspace" unicode="&#xe00f;" horiz-adv-x="573" 
 />
    <glyph glyph-name="lozenge" unicode="&#xe010;" horiz-adv-x="919" 
d="M199 563l497 408l328 -424l-496 -408zM680 856l-375 -305l238 -305l372 307z" />
    <glyph glyph-name="apple" unicode="&#xe011;" horiz-adv-x="1695" 
d="M905 1116q-37 0 -37 41q0 85 85 183t173 98q29 0 29 -39t-25.5 -89t-63.5 -93t-81 -72t-80 -29zM1343 684q0 -98 66.5 -177.5t153.5 -109.5q-51 -131 -124 -227t-144.5 -147.5t-161.5 -51.5t-152 72q-41 41 -73 41q-61 0 -97 -41q-59 -72 -146 -72t-242.5 154.5t-206 329
t-50.5 266.5q0 188 113.5 303t291.5 115q124 0 201 -52q47 -31 71.5 -44t58.5 -13q67 0 137 54t183 55q113 0 193.5 -44.5t100.5 -99.5q-173 -85 -173 -311z" />
    </font>
</defs>
</svg>
