<?xml version="1.0" encoding="utf-8"?>
<!-- Generator: Adobe Illustrator 16.0.0, SVG Export Plug-In . SVG Version: 6.00 Build 0)  -->
<!DOCTYPE svg PUBLIC "-//W3C//DTD SVG 1.1//EN" "http://www.w3.org/Graphics/SVG/1.1/DTD/svg11.dtd">
<svg version="1.1" id="Layer_1" xmlns="http://www.w3.org/2000/svg" xmlns:xlink="http://www.w3.org/1999/xlink" x="0px" y="0px"
	 width="124px" height="150px" viewBox="0 0 124 150" enable-background="new 0 0 124 150" xml:space="preserve">
<g>
	<g>
		<path fill="#FFFFFF" d="M40.098,0.803h0.828l21.454,47.32H52.239l-2.208-5.311H30.992l-2.207,5.311h-9.312L40.098,0.803z
			 M46.582,34.741l-3.38-8.141c-1.38-3.311-2.828-8.415-2.828-8.415s-1.379,5.104-2.76,8.415l-3.379,8.141H46.582z"/>
		<path fill="#FFFFFF" d="M59.597,31.154V18.366h9.657v12.236c0,6.828,2.967,9.451,9.382,9.451c6.347,0,9.243-2.623,9.243-9.451
			V18.366h9.657v12.788c0,11.864-8.209,17.589-18.9,17.589C67.805,48.743,59.597,43.019,59.597,31.154z"/>
		<path fill="#FFFFFF" d="M3.164,74.688c0-13.863,9.795-24.005,23.937-24.005c7.657,0,13.176,2.067,17.039,6.483l-6.555,6.484
			c-2.345-2.415-5.034-4.277-10.484-4.277c-8.485,0-14.003,6.554-14.003,15.314c0,8.762,5.656,15.452,15.521,15.452
			c3.035,0,6.761-0.552,9.175-1.725v-6.897H26.479v-8.485h20.143v20.281c-2.69,2.206-9.451,5.448-18.004,5.448
			C13.305,98.762,3.164,88.554,3.164,74.688z"/>
		<path fill="#FFFFFF" d="M49.48,81.173V51.233h9.658V80.62c0,6.829,2.966,9.45,9.381,9.45c6.347,0,9.244-2.621,9.244-9.45V51.233
			h9.658v29.939c0,11.863-8.209,17.589-18.902,17.589C57.69,98.762,49.48,93.036,49.48,81.173z"/>
		<path fill="#FFFFFF" d="M87.242,88.897l7.863-4.553c2.07,3.38,4.761,5.863,9.521,5.863c4.001,0,6.553-2,6.553-4.759
			c0-3.312-2.622-4.484-7.036-6.416L101.729,78c-6.968-2.967-11.59-6.692-11.59-14.557c0-7.242,5.52-12.761,14.142-12.761
			c6.14,0,10.555,2.137,13.728,7.726l-7.52,4.827c-1.655-2.966-3.448-4.138-6.208-4.138c-2.828,0-4.622,1.794-4.622,4.138
			c0,2.897,1.794,4.071,5.934,5.864l2.414,1.036c8.209,3.517,12.83,7.105,12.83,15.175c0,8.691-6.829,13.451-16.004,13.451
			C95.865,98.762,90.07,94.485,87.242,88.897z"/>
		<path fill="#FFFFFF" d="M32.164,110.154H18.782v-8.484h36.423v8.484H41.822v21.272h-9.658V110.154z"/>
		<path fill="#FFFFFF" d="M52.802,125.124c0-13.864,10.761-24.075,24.282-24.075c13.52,0,24.281,10.211,24.281,24.075
			c0,13.865-10.762,24.073-24.281,24.073C63.562,149.197,52.802,138.989,52.802,125.124z M91.432,125.124
			c0-8.762-5.795-15.452-14.348-15.452c-8.555,0-14.35,6.69-14.35,15.452c0,8.76,5.795,15.452,14.35,15.452
			C85.637,140.576,91.432,133.884,91.432,125.124z"/>
	</g>
	<g>
		<path fill="#FFFFFF" d="M1.975,14.974v120.053h62.502c-0.175-0.305-0.319-0.622-0.414-0.957c-1.449-1.224-2.511-2.967-2.317-4.759
			H7.69V20.69H116.31v108.62H96.176c-0.033,1.966-0.756,3.937-1.898,5.716h27.748V14.974H1.975z"/>
	</g>
</g>
</svg>
