<?xml version="1.0" encoding="utf-8"?>
<!-- Generator: Adobe Illustrator 16.0.0, SVG Export Plug-In . SVG Version: 6.00 Build 0)  -->
<!DOCTYPE svg PUBLIC "-//W3C//DTD SVG 1.1//EN" "http://www.w3.org/Graphics/SVG/1.1/DTD/svg11.dtd">
<svg version="1.1" id="Layer_1" xmlns="http://www.w3.org/2000/svg" xmlns:xlink="http://www.w3.org/1999/xlink" x="0px" y="0px"
	 width="355px" height="160px" viewBox="0 0 355 160" enable-background="new 0 0 355 160" xml:space="preserve">
<g>
	<g>
		<g>
			<path d="M79.062,77.521c-1.17-1.187-2.434-2.245-3.774-3.17c0.037-0.038,0.075-0.075,0.112-0.112
				c4.062-4.064,6.322-8.668,6.363-14.415c0.042-5.808-2.18-11.285-6.258-15.422C71.428,40.265,65.809,38.042,60,38H47v84h13
				c0.063,0,0.937,0,1,0c14.156,0,25.392-11.981,25.495-26.16C86.545,88.94,83.906,82.435,79.062,77.521z M58,49h2
				c2.871,0.021,5.657,1.078,7.671,3.123c2.015,2.044,3.113,4.75,3.092,7.621c-0.02,2.841-1.137,5.511-3.144,7.519
				C65.335,69.548,63.561,70.04,61,70h-3V49z M61,110c-0.036,0-0.073,0-0.109,0H58V81h3c3.961,0.028,7.447,1.421,10.228,4.242
				c2.78,2.821,4.296,6.557,4.267,10.518C75.436,103.901,69.128,110,61,110z"/>
			<g>
				<g>
					<path d="M112.878,81.386h0.158c11.903,0,21.657-9.685,21.743-21.589c0.042-5.808-2.181-11.285-6.258-15.422
						c-4.078-4.137-9.522-6.438-15.331-6.48l-0.158-0.001c-11.903,0-21.657,9.686-21.743,21.59
						c-0.042,5.808,2.181,11.285,6.258,15.422C101.625,79.042,107.069,81.344,112.878,81.386z M113.111,48.895
						c2.87,0.021,5.561,1.157,7.576,3.202c2.015,2.044,3.113,4.75,3.092,7.621c-0.042,5.883-4.861,10.668-10.743,10.668h-0.08
						c-2.869-0.021-5.56-1.158-7.575-3.202c-2.015-2.044-3.112-4.75-3.092-7.621C102.331,53.68,107.15,48.894,113.111,48.895z"/>
				</g>
				<g>
					<rect x="91" y="111" width="44" height="11"/>
				</g>
			</g>
			<path d="M308.465,90.133l-35.476-28.676l-0.009-1.626l0,0c0.023-2.951,1.193-5.715,3.295-7.788
				c2.086-2.056,4.84-3.185,7.766-3.185c0.027,0,0.055,0,0.082,0.001c4.359,0.031,8.307,2.631,10.059,6.623
				c0.625,1.425,0.83,2.895,0.818,4.518h11c0.023-3.182-0.494-6.084-1.746-8.937c-3.492-7.959-11.363-13.142-20.051-13.204
				c-5.85-0.036-11.451,2.213-15.648,6.35c-4.199,4.138-6.533,9.75-6.576,15.644l-0.002,6.818l35.492,28.75v1.713
				c-0.025,3.59-1.447,6.956-4.006,9.477c-2.533,2.497-5.881,3.869-9.436,3.869c-0.033,0-0.066,0-0.098,0
				c-5.588-0.04-10.627-3.593-12.541-8.84C270.842,100.14,271,97,271,97h-11c0,0,0.057,5.671,1.055,8.407
				c3.477,9.54,12.637,15.999,22.795,16.072c0.061,0,0.119,0,0.18,0c6.463,0,12.551-2.494,17.156-7.035
				c4.65-4.584,7.236-10.792,7.283-17.32L308.465,90.133z"/>
			<g>
				<polygon points="182,60 182.099,95.08 154.875,39 144,39 144,111 155,111 155,65 182,121 183,122 193,122 193,60 				"/>
			</g>
			<g>
				<g>
					<rect x="203" y="39" width="49" height="11"/>
				</g>
				<g>
					<path d="M241,60l0.007,37H241c-0.025,3.59-1.781,7-4.339,9.52c-2.533,2.498-5.881,3.869-9.436,3.869c-0.033,0-0.066,0-0.099,0
						c-5.588-0.039-10.627-3.592-12.54-8.84c-0.547-1.5-0.599-2.93-0.587-4.549h-0.022L214,60h-11v37l0.016,0.004
						c-0.021,2.936,0.239,5.576,1.236,8.312c3.478,9.541,12.638,16,22.796,16.072c0.06,0,0.119,0,0.18,0
						c6.462,0,12.55-2.494,17.156-7.035c4.516-4.451,7.429-11.031,7.616-17.354l0,0V60H241z"/>
				</g>
			</g>
		</g>
	</g>
</g>
<g>
	<path d="M355,160H0V0h355V160z M11,149h333V11H11V149z"/>
</g>
</svg>
